# Blender v2.81 (sub 16) OBJ File: 'Bootsie.blend'
# www.blender.org
mtllib 2.mtl
o Text_Text.002
v 0.416667 0.050000 -0.750000
v 0.385417 0.050000 -0.666667
v 0.136458 0.050000 -0.666667
v 0.053125 0.050000 -0.697917
v 0.105208 0.050000 -0.750000
v 0.135417 0.050000 -0.416667
v 0.406250 0.050000 -0.416667
v 0.447917 0.050000 -0.375000
v 0.406250 0.050000 -0.333333
v 0.135417 0.050000 -0.333333
v 0.093750 0.050000 -0.375000
v 0.416667 0.050000 -0.083333
v 0.447917 0.050000 0.000000
v 0.104167 0.050000 0.000000
v 0.052083 0.050000 -0.052083
v 0.135417 0.050000 -0.083333
v 0.135417 0.050000 -0.104167
v 0.052083 0.050000 -0.072917
v 0.052083 0.050000 -0.343750
v 0.072917 0.050000 -0.364583
v 0.135417 0.050000 -0.302083
v 0.468750 0.050000 -0.385417
v 0.406250 0.050000 -0.447917
v 0.406250 0.050000 -0.666667
v 0.437500 0.050000 -0.750000
v 0.489583 0.050000 -0.697917
v 0.489583 0.050000 -0.406250
v 0.416667 -0.050000 -0.750000
v 0.385417 -0.050000 -0.666667
v 0.136458 -0.050000 -0.666667
v 0.053125 -0.050000 -0.697917
v 0.105208 -0.050000 -0.750000
v 0.135417 -0.050000 -0.416667
v 0.406250 -0.050000 -0.416667
v 0.447917 -0.050000 -0.375000
v 0.406250 -0.050000 -0.333333
v 0.135417 -0.050000 -0.333333
v 0.093750 -0.050000 -0.375000
v 0.416667 -0.050000 -0.083333
v 0.447917 -0.050000 0.000000
v 0.104167 -0.050000 0.000000
v 0.052083 -0.050000 -0.052083
v 0.135417 -0.050000 -0.083333
v 0.135417 -0.050000 -0.104167
v 0.052083 -0.050000 -0.072917
v 0.052083 -0.050000 -0.343750
v 0.072917 -0.050000 -0.364583
v 0.135417 -0.050000 -0.302083
v 0.468750 -0.050000 -0.385417
v 0.406250 -0.050000 -0.447917
v 0.406250 -0.050000 -0.666667
v 0.437500 -0.050000 -0.750000
v 0.489583 -0.050000 -0.697917
v 0.489583 -0.050000 -0.406250
v 0.135417 -0.050000 -0.416667
v 0.135417 0.050000 -0.416667
v 0.406250 -0.050000 -0.416667
v 0.406250 0.050000 -0.416667
v 0.447917 -0.050000 -0.375000
v 0.447917 0.050000 -0.375000
v 0.406250 -0.050000 -0.333333
v 0.406250 0.050000 -0.333333
v 0.135417 -0.050000 -0.333333
v 0.135417 0.050000 -0.333333
v 0.093750 -0.050000 -0.375000
v 0.093750 0.050000 -0.375000
v 0.416667 -0.050000 -0.083333
v 0.416667 0.050000 -0.083333
v 0.447917 -0.050000 0.000000
v 0.447917 0.050000 0.000000
v 0.104167 -0.050000 0.000000
v 0.104167 0.050000 0.000000
v 0.052083 -0.050000 -0.052083
v 0.052083 0.050000 -0.052083
v 0.135417 -0.050000 -0.083333
v 0.135417 0.050000 -0.083333
v 0.135417 -0.050000 -0.104167
v 0.135417 0.050000 -0.104167
v 0.052083 -0.050000 -0.072917
v 0.052083 0.050000 -0.072917
v 0.052083 -0.050000 -0.343750
v 0.052083 0.050000 -0.343750
v 0.072917 -0.050000 -0.364583
v 0.072917 0.050000 -0.364583
v 0.135417 -0.050000 -0.302083
v 0.135417 0.050000 -0.302083
v 0.416667 -0.050000 -0.750000
v 0.416667 0.050000 -0.750000
v 0.385417 -0.050000 -0.666667
v 0.385417 0.050000 -0.666667
v 0.136458 -0.050000 -0.666667
v 0.136458 0.050000 -0.666667
v 0.053125 -0.050000 -0.697917
v 0.053125 0.050000 -0.697917
v 0.105208 -0.050000 -0.750000
v 0.105208 0.050000 -0.750000
v 0.468750 -0.050000 -0.385417
v 0.468750 0.050000 -0.385417
v 0.406250 -0.050000 -0.447917
v 0.406250 0.050000 -0.447917
v 0.406250 -0.050000 -0.666667
v 0.406250 0.050000 -0.666667
v 0.437500 -0.050000 -0.750000
v 0.437500 0.050000 -0.750000
v 0.489583 -0.050000 -0.697917
v 0.489583 0.050000 -0.697917
v 0.489583 -0.050000 -0.406250
v 0.489583 0.050000 -0.406250
vt 0.076547 0.719760
vt 0.152149 0.748111
vt 0.104898 0.795362
vt 0.152149 0.483503
vt 0.076547 0.521304
vt 0.133249 0.464602
vt 0.924651 0.413138
vt 0.886849 0.696646
vt 0.886849 0.450939
vt 0.924651 0.734447
vt 0.962452 0.450939
vt 0.962452 0.696646
vt 0.962452 0.753978
vt 0.886849 0.791779
vt 0.943551 0.735077
vt 0.962452 0.999685
vt 0.886849 0.971334
vt 0.028666 0.464602
vt 0.000315 0.795362
vt 0.000315 0.540205
vt 0.075917 0.823713
vt 0.075917 0.511854
vt 0.784671 0.330129
vt 0.831922 0.000315
vt 0.831922 0.282878
vt 0.756320 0.028666
vt 0.756320 0.254527
vt 0.152780 0.748110
vt 0.228382 0.719760
vt 0.200031 0.795362
vt 0.152780 0.483503
vt 0.228382 0.521304
vt 0.171680 0.464602
vt 0.832552 0.038116
vt 0.870353 0.321624
vt 0.832552 0.283823
vt 0.870353 0.000315
vt 0.908154 0.283823
vt 0.908154 0.038116
vt 0.908784 0.208221
vt 0.984386 0.246022
vt 0.965486 0.264923
vt 0.984386 0.000315
vt 0.908784 0.028666
vt 0.734385 0.441489
vt 0.762736 0.772248
vt 0.734385 0.696646
vt 0.809987 0.413138
vt 0.809987 0.724997
vt 0.886219 0.742952
vt 0.838968 0.413138
vt 0.886219 0.460389
vt 0.810617 0.714601
vt 0.810617 0.488740
vt 0.733755 0.441275
vt 0.733755 0.788501
vt 0.645065 0.701324
vt 0.653017 0.560323
vt 0.639219 0.840432
vt 0.619965 0.715444
vt 0.517153 0.815311
vt 0.594789 0.698205
vt 0.511586 0.468122
vt 0.602887 0.557386
vt 0.608116 0.413138
vt 0.628804 0.538531
vt 0.122471 0.319073
vt 0.167644 0.324870
vt 0.257483 0.431904
vt 0.068296 0.463972
vt 0.174036 0.145788
vt 0.257483 0.032114
vt 0.143480 0.119074
vt 0.106963 0.000315
vt 0.110855 0.160833
vt 0.000315 0.104147
vt 0.289559 0.465208
vt 0.485873 0.433503
vt 0.417735 0.584702
vt 0.379414 0.582157
vt 0.485873 0.782818
vt 0.405059 0.684654
vt 0.440069 0.810418
vt 0.392458 0.691778
vt 0.258113 0.771561
vt 0.360652 0.667073
vt 0.510956 0.400689
vt 0.328310 0.432873
vt 0.379686 0.293739
vt 0.422057 0.298966
vt 0.258113 0.108880
vt 0.369534 0.157520
vt 0.352865 0.000315
vt 0.396390 0.119604
vt 0.510956 0.018044
vt 0.431259 0.140761
vt 0.714888 0.412508
vt 0.540658 0.394334
vt 0.618354 0.279676
vt 0.657332 0.306651
vt 0.511586 0.095205
vt 0.617003 0.150561
vt 0.615018 0.000315
vt 0.646481 0.114305
vt 0.755690 0.036088
vt 0.672663 0.138752
vt 0.755690 0.382858
vt 0.670979 0.293595
vn 0.0000 1.0000 -0.0000
vn 0.0000 -1.0000 -0.0000
vn -0.3827 0.0000 -0.9239
vn 0.3827 0.0000 -0.9239
vn 1.0000 0.0000 0.0000
vn 0.3827 0.0000 0.9239
vn -0.3827 0.0000 0.9239
vn -1.0000 0.0000 0.0000
vn 0.5696 0.0000 -0.8219
vn 0.8219 0.0000 0.5696
vn -0.9773 0.0000 -0.2117
vn -0.1784 0.0000 -0.9839
vn -0.5696 0.0000 0.8219
vn -0.9239 0.0000 -0.3827
vn 0.0000 0.0000 -1.0000
vn 0.9239 0.0000 -0.3827
vn 0.8219 0.0000 -0.5696
vn 0.5696 0.0000 0.8219
vn -0.1784 0.0000 0.9839
vn -0.9773 0.0000 0.2117
vn 0.0000 0.0000 1.0000
vn -0.9239 0.0000 0.3827
vn -0.9839 0.0000 -0.1784
vn -0.2117 0.0000 -0.9773
vn 0.9239 0.0000 0.3827
usemtl None
s off
f 24/1/1 26/2/1 25/3/1
f 24/1/1 27/4/1 26/2/1
f 23/5/1 27/4/1 24/1/1
f 22/6/1 27/4/1 23/5/1
f 11/7/1 7/8/1 6/9/1
f 11/7/1 8/10/1 7/8/1
f 10/11/1 8/10/1 11/7/1
f 10/11/1 9/12/1 8/10/1
f 19/13/1 21/14/1 20/15/1
f 18/16/1 21/14/1 19/13/1
f 18/16/1 17/17/1 21/14/1
f 15/18/1 12/19/1 16/20/1
f 15/18/1 13/21/1 12/19/1
f 14/22/1 13/21/1 15/18/1
f 4/23/1 1/24/1 5/25/1
f 4/23/1 2/26/1 1/24/1
f 3/27/1 2/26/1 4/23/1
f 53/28/2 51/29/2 52/30/2
f 54/31/2 51/29/2 53/28/2
f 54/31/2 50/32/2 51/29/2
f 54/31/2 49/33/2 50/32/2
f 34/34/2 38/35/2 33/36/2
f 35/37/2 38/35/2 34/34/2
f 35/37/2 37/38/2 38/35/2
f 36/39/2 37/38/2 35/37/2
f 48/40/2 46/41/2 47/42/2
f 48/40/2 45/43/2 46/41/2
f 44/44/2 45/43/2 48/40/2
f 39/45/2 42/46/2 43/47/2
f 40/48/2 42/46/2 39/45/2
f 40/48/2 41/49/2 42/46/2
f 28/50/2 31/51/2 32/52/2
f 29/53/2 31/51/2 28/50/2
f 29/53/2 30/54/2 31/51/2
s 1
f 56/55/3 58/56/4 57/57/4 55/58/3
f 58/56/4 60/59/5 59/60/5 57/57/4
f 60/59/5 62/61/6 61/62/6 59/60/5
f 62/61/6 64/63/7 63/64/7 61/62/6
f 64/63/7 66/65/8 65/66/8 63/64/7
f 66/65/8 56/55/3 55/58/3 65/66/8
f 68/67/9 70/68/10 69/69/10 67/70/9
f 70/68/10 72/71/7 71/72/7 69/69/10
f 72/71/7 74/73/11 73/74/11 71/72/7
f 74/73/11 76/75/12 75/76/12 73/74/11
f 76/75/12 68/67/9 67/70/9 75/76/12
f 78/77/10 80/78/13 79/79/13 77/80/10
f 80/78/13 82/81/14 81/82/14 79/79/13
f 82/81/14 84/83/15 83/84/15 81/82/14
f 84/83/15 86/85/16 85/86/16 83/84/15
f 86/85/16 78/77/10 77/80/10 85/86/16
f 88/87/17 90/88/18 89/89/18 87/90/17
f 90/88/18 92/91/19 91/92/19 89/89/18
f 92/91/19 94/93/20 93/94/20 91/92/19
f 94/93/20 96/95/3 95/96/3 93/94/20
f 96/95/3 88/87/17 87/90/17 95/96/3
f 98/97/21 100/98/22 99/99/22 97/100/21
f 100/98/22 102/101/23 101/102/23 99/99/22
f 102/101/23 104/103/24 103/104/24 101/102/23
f 104/103/24 106/105/16 105/106/16 103/104/24
f 106/105/16 108/107/25 107/108/25 105/106/16
f 108/107/25 98/97/21 97/100/21 107/108/25
