# Blender v2.81 (sub 16) OBJ File: 'Bootsie.blend'
# www.blender.org
mtllib 4.mtl
o Text_Text.002
v 0.135417 0.050000 -0.416667
v 0.406250 0.050000 -0.416667
v 0.447917 0.050000 -0.375000
v 0.406250 0.050000 -0.333333
v 0.135417 0.050000 -0.333333
v 0.093750 0.050000 -0.375000
v 0.406250 0.050000 -0.302083
v 0.468750 0.050000 -0.364583
v 0.489583 0.050000 -0.343750
v 0.489583 0.050000 -0.052083
v 0.437500 0.050000 0.000000
v 0.406250 0.050000 -0.083333
v 0.052083 0.050000 -0.708333
v 0.135417 0.050000 -0.677083
v 0.135417 0.050000 -0.447917
v 0.072917 0.050000 -0.385417
v 0.052083 0.050000 -0.406250
v 0.468750 0.050000 -0.385417
v 0.406250 0.050000 -0.447917
v 0.406250 0.050000 -0.666667
v 0.437500 0.050000 -0.750000
v 0.489583 0.050000 -0.697917
v 0.489583 0.050000 -0.406250
v 0.135417 -0.050000 -0.416667
v 0.406250 -0.050000 -0.416667
v 0.447917 -0.050000 -0.375000
v 0.406250 -0.050000 -0.333333
v 0.135417 -0.050000 -0.333333
v 0.093750 -0.050000 -0.375000
v 0.406250 -0.050000 -0.302083
v 0.468750 -0.050000 -0.364583
v 0.489583 -0.050000 -0.343750
v 0.489583 -0.050000 -0.052083
v 0.437500 -0.050000 0.000000
v 0.406250 -0.050000 -0.083333
v 0.052083 -0.050000 -0.708333
v 0.135417 -0.050000 -0.677083
v 0.135417 -0.050000 -0.447917
v 0.072917 -0.050000 -0.385417
v 0.052083 -0.050000 -0.406250
v 0.468750 -0.050000 -0.385417
v 0.406250 -0.050000 -0.447917
v 0.406250 -0.050000 -0.666667
v 0.437500 -0.050000 -0.750000
v 0.489583 -0.050000 -0.697917
v 0.489583 -0.050000 -0.406250
v 0.135417 -0.050000 -0.416667
v 0.135417 0.050000 -0.416667
v 0.406250 -0.050000 -0.416667
v 0.406250 0.050000 -0.416667
v 0.447917 -0.050000 -0.375000
v 0.447917 0.050000 -0.375000
v 0.406250 -0.050000 -0.333333
v 0.406250 0.050000 -0.333333
v 0.135417 -0.050000 -0.333333
v 0.135417 0.050000 -0.333333
v 0.093750 -0.050000 -0.375000
v 0.093750 0.050000 -0.375000
v 0.406250 -0.050000 -0.302083
v 0.406250 0.050000 -0.302083
v 0.468750 -0.050000 -0.364583
v 0.468750 0.050000 -0.364583
v 0.489583 -0.050000 -0.343750
v 0.489583 0.050000 -0.343750
v 0.489583 -0.050000 -0.052083
v 0.489583 0.050000 -0.052083
v 0.437500 -0.050000 0.000000
v 0.437500 0.050000 0.000000
v 0.406250 -0.050000 -0.083333
v 0.406250 0.050000 -0.083333
v 0.052083 -0.050000 -0.708333
v 0.052083 0.050000 -0.708333
v 0.135417 -0.050000 -0.677083
v 0.135417 0.050000 -0.677083
v 0.135417 -0.050000 -0.447917
v 0.135417 0.050000 -0.447917
v 0.072917 -0.050000 -0.385417
v 0.072917 0.050000 -0.385417
v 0.052083 -0.050000 -0.406250
v 0.052083 0.050000 -0.406250
v 0.468750 -0.050000 -0.385417
v 0.468750 0.050000 -0.385417
v 0.406250 -0.050000 -0.447917
v 0.406250 0.050000 -0.447917
v 0.406250 -0.050000 -0.666667
v 0.406250 0.050000 -0.666667
v 0.437500 -0.050000 -0.750000
v 0.437500 0.050000 -0.750000
v 0.489583 -0.050000 -0.697917
v 0.489583 0.050000 -0.697917
v 0.489583 -0.050000 -0.406250
v 0.489583 0.050000 -0.406250
vt 0.607915 0.842860
vt 0.701087 0.877799
vt 0.642854 0.936032
vt 0.879090 0.023599
vt 0.972262 0.326407
vt 0.879090 0.361346
vt 0.701087 0.551699
vt 0.972262 0.070185
vt 0.607915 0.598285
vt 0.902383 0.000306
vt 0.677794 0.528406
vt 0.842069 0.924385
vt 0.888654 0.574992
vt 0.888654 0.877800
vt 0.842069 0.528406
vt 0.795483 0.877800
vt 0.795483 0.574992
vt 0.400255 0.846649
vt 0.493427 0.893235
vt 0.470134 0.916528
vt 0.493427 0.567134
vt 0.400255 0.602074
vt 0.435194 0.508902
vt 0.306471 0.858295
vt 0.399643 0.823356
vt 0.364703 0.916527
vt 0.889267 0.854506
vt 0.982439 0.551699
vt 0.982439 0.889446
vt 0.306471 0.532195
vt 0.889267 0.598285
vt 0.399643 0.578781
vt 0.959146 0.528406
vt 0.329764 0.508902
vt 0.701699 0.574992
vt 0.748285 0.924385
vt 0.701699 0.877800
vt 0.748285 0.528406
vt 0.794871 0.877800
vt 0.794870 0.574992
vt 0.494039 0.893235
vt 0.587211 0.846649
vt 0.517332 0.916528
vt 0.494039 0.567134
vt 0.587211 0.602074
vt 0.552271 0.508902
vt 0.878478 0.034071
vt 0.878478 0.461153
vt 0.767663 0.351460
vt 0.779608 0.178999
vt 0.761247 0.527794
vt 0.736097 0.374955
vt 0.607915 0.494029
vt 0.706785 0.349100
vt 0.607915 0.066947
vt 0.718730 0.176640
vt 0.725146 0.000306
vt 0.750296 0.153145
vt 0.141087 0.350386
vt 0.186718 0.381229
vt 0.257527 0.507389
vt 0.048681 0.488672
vt 0.202363 0.365811
vt 0.305859 0.471199
vt 0.204050 0.172832
vt 0.305859 0.042087
vt 0.170438 0.142666
vt 0.128016 0.000306
vt 0.134108 0.189111
vt 0.000306 0.122963
vt 0.028238 0.508591
vt 0.277771 0.508002
vt 0.173706 0.674959
vt 0.122599 0.656126
vt 0.277771 0.928012
vt 0.156709 0.812174
vt 0.076786 0.999694
vt 0.111495 0.830514
vt 0.000306 0.970427
vt 0.096682 0.818086
vt 0.557019 0.508290
vt 0.342300 0.485892
vt 0.438051 0.344588
vt 0.486087 0.377832
vt 0.306471 0.117248
vt 0.436387 0.185469
vt 0.433940 0.000306
vt 0.472715 0.140787
vt 0.607303 0.044392
vt 0.504982 0.170915
vt 0.607303 0.471749
vt 0.502906 0.361743
vn 0.0000 1.0000 -0.0000
vn 0.0000 -1.0000 -0.0000
vn -0.3827 0.0000 -0.9239
vn 0.3827 0.0000 -0.9239
vn 1.0000 0.0000 0.0000
vn 0.3827 0.0000 0.9239
vn -0.3827 0.0000 0.9239
vn -1.0000 0.0000 0.0000
vn -0.9239 0.0000 -0.3827
vn 0.0000 0.0000 -1.0000
vn 0.9239 0.0000 -0.3827
vn 0.9239 0.0000 0.3827
vn -0.2117 0.0000 0.9773
vn -0.9839 0.0000 0.1784
vn -0.5696 0.0000 -0.8219
vn 0.8219 0.0000 -0.5696
vn 0.0000 0.0000 1.0000
vn -0.9239 0.0000 0.3827
vn -0.9839 0.0000 -0.1784
vn -0.2117 0.0000 -0.9773
usemtl None
s off
f 20/1/1 22/2/1 21/3/1
f 17/4/1 14/5/1 13/6/1
f 20/1/1 23/7/1 22/2/1
f 17/4/1 15/8/1 14/5/1
f 19/9/1 23/7/1 20/1/1
f 17/4/1 16/10/1 15/8/1
f 18/11/1 23/7/1 19/9/1
f 6/12/1 2/13/1 1/14/1
f 6/12/1 3/15/1 2/13/1
f 5/16/1 3/15/1 6/12/1
f 5/16/1 4/17/1 3/15/1
f 7/18/1 9/19/1 8/20/1
f 7/18/1 10/21/1 9/19/1
f 12/22/1 10/21/1 7/18/1
f 11/23/1 10/21/1 12/22/1
f 45/24/2 43/25/2 44/26/2
f 37/27/2 40/28/2 36/29/2
f 46/30/2 43/25/2 45/24/2
f 38/31/2 40/28/2 37/27/2
f 46/30/2 42/32/2 43/25/2
f 39/33/2 40/28/2 38/31/2
f 46/30/2 41/34/2 42/32/2
f 25/35/2 29/36/2 24/37/2
f 26/38/2 29/36/2 25/35/2
f 26/38/2 28/39/2 29/36/2
f 27/40/2 28/39/2 26/38/2
f 32/41/2 30/42/2 31/43/2
f 33/44/2 30/42/2 32/41/2
f 33/44/2 35/45/2 30/42/2
f 33/44/2 34/46/2 35/45/2
s 1
f 48/47/3 50/48/4 49/49/4 47/50/3
f 50/48/4 52/51/5 51/52/5 49/49/4
f 52/51/5 54/53/6 53/54/6 51/52/5
f 54/53/6 56/55/7 55/56/7 53/54/6
f 56/55/7 58/57/8 57/58/8 55/56/7
f 58/57/8 48/47/3 47/50/3 57/58/8
f 60/59/9 62/60/10 61/61/10 59/62/9
f 62/60/10 64/63/11 63/64/11 61/61/10
f 64/63/11 66/65/12 65/66/12 63/64/11
f 66/65/12 68/67/13 67/68/13 65/66/12
f 68/67/13 70/69/14 69/70/14 67/68/13
f 70/69/14 60/59/9 59/62/9 69/70/14
f 72/71/15 74/72/16 73/73/16 71/74/15
f 74/72/16 76/75/12 75/76/12 73/73/16
f 76/75/12 78/77/17 77/78/17 75/76/12
f 78/77/17 80/79/18 79/80/18 77/78/17
f 80/79/18 72/71/15 71/74/15 79/80/18
f 82/81/17 84/82/18 83/83/18 81/84/17
f 84/82/18 86/85/19 85/86/19 83/83/18
f 86/85/19 88/87/20 87/88/20 85/86/19
f 88/87/20 90/89/11 89/90/11 87/88/20
f 90/89/11 92/91/12 91/92/12 89/90/11
f 92/91/12 82/81/17 81/84/17 91/92/12
