# Blender v2.81 (sub 16) OBJ File: 'Bootsie.blend'
# www.blender.org
mtllib 5.mtl
o Text_Text.002
v 0.135417 0.050000 -0.416667
v 0.406250 0.050000 -0.416667
v 0.447917 0.050000 -0.375000
v 0.406250 0.050000 -0.333333
v 0.135417 0.050000 -0.333333
v 0.093750 0.050000 -0.375000
v 0.447917 0.050000 -0.750000
v 0.416667 0.050000 -0.666667
v 0.136458 0.050000 -0.666667
v 0.053125 0.050000 -0.697917
v 0.105208 0.050000 -0.750000
v 0.052083 0.050000 -0.677083
v 0.135417 0.050000 -0.645833
v 0.135417 0.050000 -0.447917
v 0.072917 0.050000 -0.385417
v 0.052083 0.050000 -0.406250
v 0.406250 0.050000 -0.302083
v 0.468750 0.050000 -0.364583
v 0.489583 0.050000 -0.343750
v 0.489583 0.050000 -0.052083
v 0.437500 0.050000 0.000000
v 0.406250 0.050000 -0.083333
v 0.385417 0.050000 -0.083333
v 0.416667 0.050000 0.000000
v 0.104167 0.050000 0.000000
v 0.052083 0.050000 -0.052083
v 0.135417 0.050000 -0.083333
v 0.135417 -0.050000 -0.416667
v 0.406250 -0.050000 -0.416667
v 0.447917 -0.050000 -0.375000
v 0.406250 -0.050000 -0.333333
v 0.135417 -0.050000 -0.333333
v 0.093750 -0.050000 -0.375000
v 0.447917 -0.050000 -0.750000
v 0.416667 -0.050000 -0.666667
v 0.136458 -0.050000 -0.666667
v 0.053125 -0.050000 -0.697917
v 0.105208 -0.050000 -0.750000
v 0.052083 -0.050000 -0.677083
v 0.135417 -0.050000 -0.645833
v 0.135417 -0.050000 -0.447917
v 0.072917 -0.050000 -0.385417
v 0.052083 -0.050000 -0.406250
v 0.406250 -0.050000 -0.302083
v 0.468750 -0.050000 -0.364583
v 0.489583 -0.050000 -0.343750
v 0.489583 -0.050000 -0.052083
v 0.437500 -0.050000 0.000000
v 0.406250 -0.050000 -0.083333
v 0.385417 -0.050000 -0.083333
v 0.416667 -0.050000 0.000000
v 0.104167 -0.050000 0.000000
v 0.052083 -0.050000 -0.052083
v 0.135417 -0.050000 -0.083333
v 0.135417 -0.050000 -0.416667
v 0.135417 0.050000 -0.416667
v 0.406250 -0.050000 -0.416667
v 0.406250 0.050000 -0.416667
v 0.447917 -0.050000 -0.375000
v 0.447917 0.050000 -0.375000
v 0.406250 -0.050000 -0.333333
v 0.406250 0.050000 -0.333333
v 0.135417 -0.050000 -0.333333
v 0.135417 0.050000 -0.333333
v 0.093750 -0.050000 -0.375000
v 0.093750 0.050000 -0.375000
v 0.406250 -0.050000 -0.302083
v 0.406250 0.050000 -0.302083
v 0.468750 -0.050000 -0.364583
v 0.468750 0.050000 -0.364583
v 0.489583 -0.050000 -0.343750
v 0.489583 0.050000 -0.343750
v 0.489583 -0.050000 -0.052083
v 0.489583 0.050000 -0.052083
v 0.437500 -0.050000 0.000000
v 0.437500 0.050000 0.000000
v 0.406250 -0.050000 -0.083333
v 0.406250 0.050000 -0.083333
v 0.385417 -0.050000 -0.083333
v 0.385417 0.050000 -0.083333
v 0.416667 -0.050000 0.000000
v 0.416667 0.050000 0.000000
v 0.104167 -0.050000 0.000000
v 0.104167 0.050000 0.000000
v 0.052083 -0.050000 -0.052083
v 0.052083 0.050000 -0.052083
v 0.135417 -0.050000 -0.083333
v 0.135417 0.050000 -0.083333
v 0.447917 -0.050000 -0.750000
v 0.447917 0.050000 -0.750000
v 0.416667 -0.050000 -0.666667
v 0.416667 0.050000 -0.666667
v 0.136458 -0.050000 -0.666667
v 0.136458 0.050000 -0.666667
v 0.053125 -0.050000 -0.697917
v 0.053125 0.050000 -0.697917
v 0.105208 -0.050000 -0.750000
v 0.105208 0.050000 -0.750000
v 0.052083 -0.050000 -0.677083
v 0.052083 0.050000 -0.677083
v 0.135417 -0.050000 -0.645833
v 0.135417 0.050000 -0.645833
v 0.135417 -0.050000 -0.447917
v 0.135417 0.050000 -0.447917
v 0.072917 -0.050000 -0.385417
v 0.072917 0.050000 -0.385417
v 0.052083 -0.050000 -0.406250
v 0.052083 0.050000 -0.406250
vt 0.734815 0.897854
vt 0.811378 0.936136
vt 0.792237 0.955277
vt 0.811378 0.668165
vt 0.734815 0.696876
vt 0.840728 0.620313
vt 0.812017 0.926565
vt 0.812016 0.696876
vt 0.888580 0.955277
vt 0.763526 0.620313
vt 0.888580 0.668164
vt 0.840728 0.619674
vt 0.888580 0.256956
vt 0.888580 0.571822
vt 0.812017 0.285667
vt 0.812016 0.543111
vt 0.411862 0.693428
vt 0.488425 0.913547
vt 0.411862 0.942258
vt 0.488425 0.731709
vt 0.431003 0.674287
vt 0.295741 0.674287
vt 0.257459 0.961399
vt 0.257459 0.712569
vt 0.295741 0.999681
vt 0.334022 0.712568
vt 0.334022 0.961399
vt 0.965781 0.611699
vt 0.889218 0.649981
vt 0.946640 0.592558
vt 0.965781 0.879670
vt 0.889218 0.850959
vt 0.889218 0.285667
vt 0.917929 0.591920
vt 0.889218 0.515357
vt 0.965781 0.256956
vt 0.917929 0.927522
vt 0.965781 0.544068
vt 0.811378 0.619674
vt 0.763526 0.256956
vt 0.811378 0.304808
vt 0.734815 0.590963
vt 0.734815 0.333519
vt 0.585747 0.719031
vt 0.509183 0.939151
vt 0.509183 0.690320
vt 0.585747 0.900869
vt 0.528324 0.958291
vt 0.411224 0.961399
vt 0.372942 0.674287
vt 0.411224 0.712569
vt 0.372942 0.999681
vt 0.334661 0.712568
vt 0.334661 0.961399
vt 0.734177 0.285450
vt 0.734177 0.637091
vt 0.644359 0.548806
vt 0.652412 0.406012
vt 0.638439 0.689682
vt 0.618940 0.563105
vt 0.514822 0.664241
vt 0.593445 0.545647
vt 0.509183 0.312639
vt 0.601645 0.403037
vt 0.606941 0.256956
vt 0.627892 0.383943
vt 0.373145 0.544632
vt 0.410642 0.569977
vt 0.468829 0.673649
vt 0.297211 0.658268
vt 0.423498 0.557308
vt 0.508545 0.643910
vt 0.424884 0.398728
vt 0.508545 0.291289
vt 0.397264 0.373940
vt 0.362404 0.256956
vt 0.367410 0.412105
vt 0.257459 0.357748
vt 0.058068 0.285857
vt 0.256821 0.256956
vt 0.188391 0.413040
vt 0.140397 0.411984
vt 0.256821 0.644054
vt 0.165270 0.564271
vt 0.146899 0.705162
vt 0.135655 0.583913
vt 0.000319 0.616649
vt 0.113622 0.544320
vt 0.456145 0.045095
vt 0.456145 0.251285
vt 0.313517 0.171968
vt 0.329938 0.123980
vt 0.084247 0.256318
vt 0.154107 0.157602
vt 0.000319 0.140766
vt 0.119959 0.122311
vt 0.051516 0.000319
vt 0.148665 0.097888
vt 0.832081 0.039683
vt 0.832081 0.228594
vt 0.706134 0.146280
vt 0.718214 0.109148
vt 0.521387 0.238895
vt 0.617890 0.134856
vt 0.456784 0.065958
vt 0.599327 0.096695
vt 0.483386 0.000319
vt 0.612474 0.084263
vn 0.0000 1.0000 -0.0000
vn 0.0000 -1.0000 -0.0000
vn -0.3827 0.0000 -0.9239
vn 0.3827 0.0000 -0.9239
vn 1.0000 0.0000 0.0000
vn 0.3827 0.0000 0.9239
vn -0.3827 0.0000 0.9239
vn -1.0000 0.0000 0.0000
vn -0.9239 0.0000 -0.3827
vn 0.0000 0.0000 -1.0000
vn 0.9239 0.0000 -0.3827
vn 0.9239 0.0000 0.3827
vn -0.2117 0.0000 0.9773
vn -0.9839 0.0000 0.1784
vn 0.5696 0.0000 -0.8219
vn 0.8219 0.0000 0.5696
vn -0.9773 0.0000 -0.2117
vn -0.1784 0.0000 -0.9839
vn 0.8219 0.0000 -0.5696
vn 0.5696 0.0000 0.8219
vn -0.1784 0.0000 0.9839
vn -0.9773 0.0000 0.2117
vn -0.5696 0.0000 -0.8219
vn 0.0000 0.0000 1.0000
vn -0.9239 0.0000 0.3827
usemtl None
s off
f 17/1/1 19/2/1 18/3/1
f 17/1/1 20/4/1 19/2/1
f 22/5/1 20/4/1 17/1/1
f 26/6/1 23/7/1 27/8/1
f 26/6/1 24/9/1 23/7/1
f 21/10/1 20/4/1 22/5/1
f 25/11/1 24/9/1 26/6/1
f 10/12/1 7/13/1 11/14/1
f 10/12/1 8/15/1 7/13/1
f 9/16/1 8/15/1 10/12/1
f 16/17/1 13/18/1 12/19/1
f 16/17/1 14/20/1 13/18/1
f 16/17/1 15/21/1 14/20/1
f 6/22/1 2/23/1 1/24/1
f 6/22/1 3/25/1 2/23/1
f 5/26/1 3/25/1 6/22/1
f 5/26/1 4/27/1 3/25/1
f 46/28/2 44/29/2 45/30/2
f 47/31/2 44/29/2 46/28/2
f 47/31/2 49/32/2 44/29/2
f 50/33/2 53/34/2 54/35/2
f 51/36/2 53/34/2 50/33/2
f 47/31/2 48/37/2 49/32/2
f 51/36/2 52/38/2 53/34/2
f 34/39/2 37/40/2 38/41/2
f 35/42/2 37/40/2 34/39/2
f 35/42/2 36/43/2 37/40/2
f 40/44/2 43/45/2 39/46/2
f 41/47/2 43/45/2 40/44/2
f 42/48/2 43/45/2 41/47/2
f 29/49/2 33/50/2 28/51/2
f 30/52/2 33/50/2 29/49/2
f 30/52/2 32/53/2 33/50/2
f 31/54/2 32/53/2 30/52/2
s 1
f 56/55/3 58/56/4 57/57/4 55/58/3
f 58/56/4 60/59/5 59/60/5 57/57/4
f 60/59/5 62/61/6 61/62/6 59/60/5
f 62/61/6 64/63/7 63/64/7 61/62/6
f 64/63/7 66/65/8 65/66/8 63/64/7
f 66/65/8 56/55/3 55/58/3 65/66/8
f 68/67/9 70/68/10 69/69/10 67/70/9
f 70/68/10 72/71/11 71/72/11 69/69/10
f 72/71/11 74/73/12 73/74/12 71/72/11
f 74/73/12 76/75/13 75/76/13 73/74/12
f 76/75/13 78/77/14 77/78/14 75/76/13
f 78/77/14 68/67/9 67/70/9 77/78/14
f 80/79/15 82/80/16 81/81/16 79/82/15
f 82/80/16 84/83/7 83/84/7 81/81/16
f 84/83/7 86/85/17 85/86/17 83/84/7
f 86/85/17 88/87/18 87/88/18 85/86/17
f 88/87/18 80/79/15 79/82/15 87/88/18
f 90/89/19 92/90/20 91/91/20 89/92/19
f 92/90/20 94/93/21 93/94/21 91/91/20
f 94/93/21 96/95/22 95/96/22 93/94/21
f 96/95/22 98/97/3 97/98/3 95/96/22
f 98/97/3 90/89/19 89/92/19 97/98/3
f 100/99/23 102/100/19 101/101/19 99/102/23
f 102/100/19 104/103/12 103/104/12 101/101/19
f 104/103/12 106/105/24 105/106/24 103/104/12
f 106/105/24 108/107/25 107/108/25 105/106/24
f 108/107/25 100/99/23 99/102/23 107/108/25
