# Blender v2.81 (sub 16) OBJ File: 'Bootsie.blend'
# www.blender.org
mtllib 6.mtl
o Text_Text.002
v 0.447917 0.050000 -0.750000
v 0.416667 0.050000 -0.666667
v 0.136458 0.050000 -0.666667
v 0.053125 0.050000 -0.697917
v 0.105208 0.050000 -0.750000
v 0.052083 0.050000 -0.677083
v 0.135417 0.050000 -0.645833
v 0.135417 0.050000 -0.447917
v 0.072917 0.050000 -0.385417
v 0.052083 0.050000 -0.406250
v 0.135417 0.050000 -0.416667
v 0.406250 0.050000 -0.416667
v 0.447917 0.050000 -0.375000
v 0.406250 0.050000 -0.333333
v 0.135417 0.050000 -0.333333
v 0.093750 0.050000 -0.375000
v 0.406250 0.050000 -0.302083
v 0.468750 0.050000 -0.364583
v 0.489583 0.050000 -0.343750
v 0.489583 0.050000 -0.052083
v 0.437500 0.050000 0.000000
v 0.406250 0.050000 -0.083333
v 0.385417 0.050000 -0.083333
v 0.416667 0.050000 0.000000
v 0.104167 0.050000 0.000000
v 0.052083 0.050000 -0.052083
v 0.135417 0.050000 -0.083333
v 0.135417 0.050000 -0.104167
v 0.052083 0.050000 -0.072917
v 0.052083 0.050000 -0.343750
v 0.072917 0.050000 -0.364583
v 0.135417 0.050000 -0.302083
v 0.447917 -0.050000 -0.750000
v 0.416667 -0.050000 -0.666667
v 0.136458 -0.050000 -0.666667
v 0.053125 -0.050000 -0.697917
v 0.105208 -0.050000 -0.750000
v 0.052083 -0.050000 -0.677083
v 0.135417 -0.050000 -0.645833
v 0.135417 -0.050000 -0.447917
v 0.072917 -0.050000 -0.385417
v 0.052083 -0.050000 -0.406250
v 0.135417 -0.050000 -0.416667
v 0.406250 -0.050000 -0.416667
v 0.447917 -0.050000 -0.375000
v 0.406250 -0.050000 -0.333333
v 0.135417 -0.050000 -0.333333
v 0.093750 -0.050000 -0.375000
v 0.406250 -0.050000 -0.302083
v 0.468750 -0.050000 -0.364583
v 0.489583 -0.050000 -0.343750
v 0.489583 -0.050000 -0.052083
v 0.437500 -0.050000 0.000000
v 0.406250 -0.050000 -0.083333
v 0.385417 -0.050000 -0.083333
v 0.416667 -0.050000 0.000000
v 0.104167 -0.050000 0.000000
v 0.052083 -0.050000 -0.052083
v 0.135417 -0.050000 -0.083333
v 0.135417 -0.050000 -0.104167
v 0.052083 -0.050000 -0.072917
v 0.052083 -0.050000 -0.343750
v 0.072917 -0.050000 -0.364583
v 0.135417 -0.050000 -0.302083
v 0.135417 -0.050000 -0.416667
v 0.135417 0.050000 -0.416667
v 0.406250 -0.050000 -0.416667
v 0.406250 0.050000 -0.416667
v 0.447917 -0.050000 -0.375000
v 0.447917 0.050000 -0.375000
v 0.406250 -0.050000 -0.333333
v 0.406250 0.050000 -0.333333
v 0.135417 -0.050000 -0.333333
v 0.135417 0.050000 -0.333333
v 0.093750 -0.050000 -0.375000
v 0.093750 0.050000 -0.375000
v 0.406250 -0.050000 -0.302083
v 0.406250 0.050000 -0.302083
v 0.468750 -0.050000 -0.364583
v 0.468750 0.050000 -0.364583
v 0.489583 -0.050000 -0.343750
v 0.489583 0.050000 -0.343750
v 0.489583 -0.050000 -0.052083
v 0.489583 0.050000 -0.052083
v 0.437500 -0.050000 0.000000
v 0.437500 0.050000 0.000000
v 0.406250 -0.050000 -0.083333
v 0.406250 0.050000 -0.083333
v 0.385417 -0.050000 -0.083333
v 0.385417 0.050000 -0.083333
v 0.416667 -0.050000 0.000000
v 0.416667 0.050000 0.000000
v 0.104167 -0.050000 0.000000
v 0.104167 0.050000 0.000000
v 0.052083 -0.050000 -0.052083
v 0.052083 0.050000 -0.052083
v 0.135417 -0.050000 -0.083333
v 0.135417 0.050000 -0.083333
v 0.135417 -0.050000 -0.104167
v 0.135417 0.050000 -0.104167
v 0.052083 -0.050000 -0.072917
v 0.052083 0.050000 -0.072917
v 0.052083 -0.050000 -0.343750
v 0.052083 0.050000 -0.343750
v 0.072917 -0.050000 -0.364583
v 0.072917 0.050000 -0.364583
v 0.135417 -0.050000 -0.302083
v 0.135417 0.050000 -0.302083
v 0.447917 -0.050000 -0.750000
v 0.447917 0.050000 -0.750000
v 0.416667 -0.050000 -0.666667
v 0.416667 0.050000 -0.666667
v 0.136458 -0.050000 -0.666667
v 0.136458 0.050000 -0.666667
v 0.053125 -0.050000 -0.697917
v 0.053125 0.050000 -0.697917
v 0.105208 -0.050000 -0.750000
v 0.105208 0.050000 -0.750000
v 0.052083 -0.050000 -0.677083
v 0.052083 0.050000 -0.677083
v 0.135417 -0.050000 -0.645833
v 0.135417 0.050000 -0.645833
v 0.135417 -0.050000 -0.447917
v 0.135417 0.050000 -0.447917
v 0.072917 -0.050000 -0.385417
v 0.072917 0.050000 -0.385417
v 0.052083 -0.050000 -0.406250
v 0.052083 0.050000 -0.406250
vt 0.600192 0.663824
vt 0.563434 0.939507
vt 0.563434 0.700582
vt 0.600191 0.976265
vt 0.636949 0.700582
vt 0.636949 0.939507
vt 0.148843 0.916908
vt 0.222358 0.880150
vt 0.167222 0.935287
vt 0.321618 0.914218
vt 0.395134 0.950976
vt 0.376755 0.969354
vt 0.148843 0.677983
vt 0.395134 0.693672
vt 0.222358 0.705551
vt 0.321618 0.721240
vt 0.879450 0.613668
vt 0.851882 0.907730
vt 0.851882 0.687184
vt 0.925397 0.935298
vt 0.349187 0.647725
vt 0.925397 0.659615
vt 0.805210 0.961947
vt 0.851157 0.613668
vt 0.851157 0.916000
vt 0.777642 0.641236
vt 0.777642 0.888432
vt 0.000362 0.696362
vt 0.073878 0.907719
vt 0.000362 0.935287
vt 0.073878 0.733120
vt 0.018741 0.677983
vt 0.562709 0.939507
vt 0.525951 0.663824
vt 0.562709 0.700582
vt 0.525951 0.976265
vt 0.489194 0.700582
vt 0.489194 0.939507
vt 0.074603 0.880150
vt 0.148118 0.916908
vt 0.129739 0.935287
vt 0.320893 0.666103
vt 0.247378 0.702861
vt 0.302515 0.647725
vt 0.148118 0.677983
vt 0.320893 0.923407
vt 0.074603 0.705551
vt 0.247378 0.895839
vt 0.395859 0.675293
vt 0.423427 0.969354
vt 0.395859 0.895839
vt 0.469374 0.647725
vt 0.274946 0.969354
vt 0.469374 0.923407
vt 0.703401 0.613668
vt 0.749348 0.961947
vt 0.703401 0.916000
vt 0.776917 0.641236
vt 0.776917 0.888432
vt 0.926122 0.843404
vt 0.999638 0.632047
vt 0.999638 0.870972
vt 0.926122 0.668805
vt 0.981259 0.613668
vt 0.702677 0.273536
vt 0.702676 0.610518
vt 0.615240 0.523967
vt 0.624665 0.387890
vt 0.610178 0.663100
vt 0.590333 0.542505
vt 0.489194 0.636458
vt 0.567205 0.522105
vt 0.489194 0.299477
vt 0.576631 0.386028
vt 0.581693 0.246895
vt 0.601537 0.367489
vt 0.358459 0.523120
vt 0.394463 0.547455
vt 0.450334 0.647000
vt 0.285547 0.632232
vt 0.406807 0.535290
vt 0.488469 0.618445
vt 0.408138 0.383024
vt 0.488469 0.279861
vt 0.381618 0.359222
vt 0.348145 0.246895
vt 0.352952 0.395868
vt 0.247378 0.343675
vt 0.055813 0.274646
vt 0.246653 0.246895
vt 0.180947 0.396765
vt 0.134864 0.395751
vt 0.246653 0.618584
vt 0.158747 0.541977
vt 0.141108 0.677258
vt 0.130311 0.560836
vt 0.000362 0.592269
vt 0.109154 0.522820
vt 0.738700 0.275177
vt 0.927594 0.246895
vt 0.860797 0.391773
vt 0.824055 0.388991
vt 0.927594 0.585501
vt 0.847849 0.488543
vt 0.882841 0.612943
vt 0.835012 0.498258
vt 0.703401 0.570923
vt 0.805292 0.470472
vt 0.438043 0.043355
vt 0.438043 0.241338
vt 0.301093 0.165178
vt 0.316860 0.119101
vt 0.080949 0.246170
vt 0.148028 0.151384
vt 0.000362 0.135218
vt 0.115239 0.117498
vt 0.049521 0.000362
vt 0.142803 0.094048
vt 0.799125 0.038159
vt 0.799125 0.219550
vt 0.678192 0.140513
vt 0.689791 0.104859
vt 0.500799 0.229441
vt 0.593461 0.129543
vt 0.438768 0.063388
vt 0.575636 0.092902
vt 0.464311 0.000362
vt 0.588261 0.080965
vn 0.0000 1.0000 0.0000
vn 0.0000 -1.0000 0.0000
vn -0.3827 0.0000 -0.9239
vn 0.3827 0.0000 -0.9239
vn 1.0000 0.0000 0.0000
vn 0.3827 0.0000 0.9239
vn -0.3827 0.0000 0.9239
vn -1.0000 0.0000 0.0000
vn -0.9239 0.0000 -0.3827
vn 0.0000 0.0000 -1.0000
vn 0.9239 0.0000 -0.3827
vn 0.9239 0.0000 0.3827
vn -0.2117 0.0000 0.9773
vn -0.9839 0.0000 0.1784
vn 0.5696 0.0000 -0.8219
vn 0.8219 0.0000 0.5696
vn -0.9773 0.0000 -0.2117
vn -0.1784 0.0000 -0.9839
vn -0.5696 0.0000 0.8219
vn 0.8219 0.0000 -0.5696
vn 0.5696 0.0000 0.8219
vn -0.1784 0.0000 0.9839
vn -0.9773 0.0000 0.2117
vn -0.5696 0.0000 -0.8219
vn 0.0000 0.0000 1.0000
vn -0.9239 0.0000 0.3827
usemtl None
s off
f 16/1/1 12/2/1 11/3/1
f 16/1/1 13/4/1 12/2/1
f 15/5/1 13/4/1 16/1/1
f 15/5/1 14/6/1 13/4/1
f 30/7/1 32/8/1 31/9/1
f 17/10/1 19/11/1 18/12/1
f 29/13/1 32/8/1 30/7/1
f 17/10/1 20/14/1 19/11/1
f 29/13/1 28/15/1 32/8/1
f 22/16/1 20/14/1 17/10/1
f 26/17/1 23/18/1 27/19/1
f 26/17/1 24/20/1 23/18/1
f 21/21/1 20/14/1 22/16/1
f 25/22/1 24/20/1 26/17/1
f 4/23/1 1/24/1 5/25/1
f 4/23/1 2/26/1 1/24/1
f 3/27/1 2/26/1 4/23/1
f 10/28/1 7/29/1 6/30/1
f 10/28/1 8/31/1 7/29/1
f 10/28/1 9/32/1 8/31/1
f 44/33/2 48/34/2 43/35/2
f 45/36/2 48/34/2 44/33/2
f 45/36/2 47/37/2 48/34/2
f 46/38/2 47/37/2 45/36/2
f 64/39/2 62/40/2 63/41/2
f 51/42/2 49/43/2 50/44/2
f 64/39/2 61/45/2 62/40/2
f 52/46/2 49/43/2 51/42/2
f 60/47/2 61/45/2 64/39/2
f 52/46/2 54/48/2 49/43/2
f 55/49/2 58/50/2 59/51/2
f 56/52/2 58/50/2 55/49/2
f 52/46/2 53/53/2 54/48/2
f 56/52/2 57/54/2 58/50/2
f 33/55/2 36/56/2 37/57/2
f 34/58/2 36/56/2 33/55/2
f 34/58/2 35/59/2 36/56/2
f 39/60/2 42/61/2 38/62/2
f 40/63/2 42/61/2 39/60/2
f 41/64/2 42/61/2 40/63/2
s 1
f 66/65/3 68/66/4 67/67/4 65/68/3
f 68/66/4 70/69/5 69/70/5 67/67/4
f 70/69/5 72/71/6 71/72/6 69/70/5
f 72/71/6 74/73/7 73/74/7 71/72/6
f 74/73/7 76/75/8 75/76/8 73/74/7
f 76/75/8 66/65/3 65/68/3 75/76/8
f 78/77/9 80/78/10 79/79/10 77/80/9
f 80/78/10 82/81/11 81/82/11 79/79/10
f 82/81/11 84/83/12 83/84/12 81/82/11
f 84/83/12 86/85/13 85/86/13 83/84/12
f 86/85/13 88/87/14 87/88/14 85/86/13
f 88/87/14 78/77/9 77/80/9 87/88/14
f 90/89/15 92/90/16 91/91/16 89/92/15
f 92/90/16 94/93/7 93/94/7 91/91/16
f 94/93/7 96/95/17 95/96/17 93/94/7
f 96/95/17 98/97/18 97/98/18 95/96/17
f 98/97/18 90/89/15 89/92/15 97/98/18
f 100/99/16 102/100/19 101/101/19 99/102/16
f 102/100/19 104/103/9 103/104/9 101/101/19
f 104/103/9 106/105/10 105/106/10 103/104/9
f 106/105/10 108/107/11 107/108/11 105/106/10
f 108/107/11 100/99/16 99/102/16 107/108/11
f 110/109/20 112/110/21 111/111/21 109/112/20
f 112/110/21 114/113/22 113/114/22 111/111/21
f 114/113/22 116/115/23 115/116/23 113/114/22
f 116/115/23 118/117/3 117/118/3 115/116/23
f 118/117/3 110/109/20 109/112/20 117/118/3
f 120/119/24 122/120/20 121/121/20 119/122/24
f 122/120/20 124/123/12 123/124/12 121/121/20
f 124/123/12 126/125/25 125/126/25 123/124/12
f 126/125/25 128/127/26 127/128/26 125/126/25
f 128/127/26 120/119/24 119/122/24 127/128/26
