# Blender v2.81 (sub 16) OBJ File: 'Bootsie.blend'
# www.blender.org
mtllib 7.mtl
o Text_Text.002
v 0.406250 0.050000 -0.302083
v 0.468750 0.050000 -0.364583
v 0.489583 0.050000 -0.343750
v 0.489583 0.050000 -0.052083
v 0.437500 0.050000 0.000000
v 0.406250 0.050000 -0.083333
v 0.416667 0.050000 -0.750000
v 0.385417 0.050000 -0.666667
v 0.136458 0.050000 -0.666667
v 0.053125 0.050000 -0.697917
v 0.105208 0.050000 -0.750000
v 0.052083 0.050000 -0.677083
v 0.135417 0.050000 -0.645833
v 0.135417 0.050000 -0.447917
v 0.072917 0.050000 -0.385417
v 0.052083 0.050000 -0.406250
v 0.468750 0.050000 -0.385417
v 0.406250 0.050000 -0.447917
v 0.406250 0.050000 -0.666667
v 0.437500 0.050000 -0.750000
v 0.489583 0.050000 -0.697917
v 0.489583 0.050000 -0.406250
v 0.406250 -0.050000 -0.302083
v 0.468750 -0.050000 -0.364583
v 0.489583 -0.050000 -0.343750
v 0.489583 -0.050000 -0.052083
v 0.437500 -0.050000 0.000000
v 0.406250 -0.050000 -0.083333
v 0.416667 -0.050000 -0.750000
v 0.385417 -0.050000 -0.666667
v 0.136458 -0.050000 -0.666667
v 0.053125 -0.050000 -0.697917
v 0.105208 -0.050000 -0.750000
v 0.052083 -0.050000 -0.677083
v 0.135417 -0.050000 -0.645833
v 0.135417 -0.050000 -0.447917
v 0.072917 -0.050000 -0.385417
v 0.052083 -0.050000 -0.406250
v 0.468750 -0.050000 -0.385417
v 0.406250 -0.050000 -0.447917
v 0.406250 -0.050000 -0.666667
v 0.437500 -0.050000 -0.750000
v 0.489583 -0.050000 -0.697917
v 0.489583 -0.050000 -0.406250
v 0.406250 -0.050000 -0.302083
v 0.406250 0.050000 -0.302083
v 0.468750 -0.050000 -0.364583
v 0.468750 0.050000 -0.364583
v 0.489583 -0.050000 -0.343750
v 0.489583 0.050000 -0.343750
v 0.489583 -0.050000 -0.052083
v 0.489583 0.050000 -0.052083
v 0.437500 -0.050000 0.000000
v 0.437500 0.050000 0.000000
v 0.406250 -0.050000 -0.083333
v 0.406250 0.050000 -0.083333
v 0.416667 -0.050000 -0.750000
v 0.416667 0.050000 -0.750000
v 0.385417 -0.050000 -0.666667
v 0.385417 0.050000 -0.666667
v 0.136458 -0.050000 -0.666667
v 0.136458 0.050000 -0.666667
v 0.053125 -0.050000 -0.697917
v 0.053125 0.050000 -0.697917
v 0.105208 -0.050000 -0.750000
v 0.105208 0.050000 -0.750000
v 0.052083 -0.050000 -0.677083
v 0.052083 0.050000 -0.677083
v 0.135417 -0.050000 -0.645833
v 0.135417 0.050000 -0.645833
v 0.135417 -0.050000 -0.447917
v 0.135417 0.050000 -0.447917
v 0.072917 -0.050000 -0.385417
v 0.072917 0.050000 -0.385417
v 0.052083 -0.050000 -0.406250
v 0.052083 0.050000 -0.406250
v 0.468750 -0.050000 -0.385417
v 0.468750 0.050000 -0.385417
v 0.406250 -0.050000 -0.447917
v 0.406250 0.050000 -0.447917
v 0.406250 -0.050000 -0.666667
v 0.406250 0.050000 -0.666667
v 0.437500 -0.050000 -0.750000
v 0.437500 0.050000 -0.750000
v 0.489583 -0.050000 -0.697917
v 0.489583 0.050000 -0.697917
v 0.489583 -0.050000 -0.406250
v 0.489583 0.050000 -0.406250
vt 0.883224 0.000279
vt 0.830524 0.368122
vt 0.830524 0.052979
vt 0.914844 0.336502
vt 0.170034 0.767848
vt 0.254353 0.799468
vt 0.201653 0.852167
vt 0.914844 0.084598
vt 0.254353 0.504350
vt 0.950781 0.759139
vt 0.866462 0.516721
vt 0.950781 0.485101
vt 0.170034 0.546510
vt 0.866462 0.716979
vt 0.929701 0.780219
vt 0.233273 0.483270
vt 0.085157 0.788928
vt 0.169476 0.831088
vt 0.148396 0.852167
vt 0.169476 0.535970
vt 0.085156 0.567590
vt 0.116776 0.483270
vt 0.865904 0.852944
vt 0.813204 0.485101
vt 0.865904 0.537800
vt 0.781584 0.821324
vt 0.084598 0.535970
vt 0.000279 0.567590
vt 0.031899 0.483270
vt 0.781584 0.569420
vt 0.084598 0.831088
vt 0.915402 0.263777
vt 0.999721 0.021359
vt 0.999721 0.295397
vt 0.000279 0.788928
vt 0.915402 0.063518
vt 0.978641 0.000279
vt 0.063519 0.852167
vt 0.696707 0.832918
vt 0.781026 0.790759
vt 0.717787 0.853998
vt 0.696707 0.537800
vt 0.781026 0.569420
vt 0.749407 0.485101
vt 0.320237 0.064422
vt 0.490612 0.000279
vt 0.463357 0.145068
vt 0.420940 0.167987
vt 0.557158 0.024480
vt 0.477731 0.159120
vt 0.557158 0.424684
vt 0.461899 0.336997
vt 0.432922 0.484543
vt 0.424859 0.354558
vt 0.282833 0.387545
vt 0.402212 0.314048
vt 0.282275 0.446817
vt 0.078570 0.482712
vt 0.135870 0.327535
vt 0.183126 0.333365
vt 0.000279 0.121361
vt 0.124546 0.175611
vt 0.105955 0.000279
vt 0.154500 0.133323
vt 0.282275 0.020052
vt 0.193389 0.156919
vt 0.696149 0.528452
vt 0.696149 0.736501
vt 0.557444 0.645848
vt 0.570746 0.604954
vt 0.353980 0.747845
vt 0.460260 0.633266
vt 0.282833 0.557389
vt 0.439816 0.591240
vt 0.312130 0.485101
vt 0.454295 0.577549
vt 0.784460 0.459999
vt 0.590141 0.439730
vt 0.676795 0.311851
vt 0.720267 0.341936
vt 0.557716 0.106110
vt 0.675289 0.167849
vt 0.673075 0.000279
vt 0.708166 0.127413
vt 0.829966 0.040176
vt 0.737367 0.154678
vt 0.829966 0.426931
vt 0.735488 0.327376
vn 0.0000 1.0000 0.0000
vn 0.0000 -1.0000 -0.0000
vn -0.9239 0.0000 -0.3827
vn 0.0000 0.0000 -1.0000
vn 0.9239 0.0000 -0.3827
vn 0.9239 0.0000 0.3827
vn -0.2117 0.0000 0.9773
vn -0.9839 0.0000 0.1784
vn 0.8219 0.0000 -0.5696
vn 0.5696 0.0000 0.8219
vn -0.1784 0.0000 0.9839
vn -0.9773 0.0000 0.2117
vn -0.3827 0.0000 -0.9239
vn -0.5696 0.0000 -0.8219
vn 0.0000 0.0000 1.0000
vn -0.9239 0.0000 0.3827
vn -0.9839 0.0000 -0.1784
vn -0.2117 0.0000 -0.9773
usemtl None
s off
f 10/1/1 7/2/1 11/3/1
f 10/1/1 8/4/1 7/2/1
f 19/5/1 21/6/1 20/7/1
f 9/8/1 8/4/1 10/1/1
f 19/5/1 22/9/1 21/6/1
f 16/10/1 13/11/1 12/12/1
f 18/13/1 22/9/1 19/5/1
f 16/10/1 14/14/1 13/11/1
f 16/10/1 15/15/1 14/14/1
f 17/16/1 22/9/1 18/13/1
f 1/17/1 3/18/1 2/19/1
f 1/17/1 4/20/1 3/18/1
f 6/21/1 4/20/1 1/17/1
f 5/22/1 4/20/1 6/21/1
f 29/23/2 32/24/2 33/25/2
f 30/26/2 32/24/2 29/23/2
f 43/27/2 41/28/2 42/29/2
f 30/26/2 31/30/2 32/24/2
f 44/31/2 41/28/2 43/27/2
f 35/32/2 38/33/2 34/34/2
f 44/31/2 40/35/2 41/28/2
f 36/36/2 38/33/2 35/32/2
f 37/37/2 38/33/2 36/36/2
f 44/31/2 39/38/2 40/35/2
f 25/39/2 23/40/2 24/41/2
f 26/42/2 23/40/2 25/39/2
f 26/42/2 28/43/2 23/40/2
f 26/42/2 27/44/2 28/43/2
s 1
f 46/45/3 48/46/4 47/47/4 45/48/3
f 48/46/4 50/49/5 49/50/5 47/47/4
f 50/49/5 52/51/6 51/52/6 49/50/5
f 52/51/6 54/53/7 53/54/7 51/52/6
f 54/53/7 56/55/8 55/56/8 53/54/7
f 56/55/8 46/45/3 45/48/3 55/56/8
f 58/57/9 60/58/10 59/59/10 57/60/9
f 60/58/10 62/61/11 61/62/11 59/59/10
f 62/61/11 64/63/12 63/64/12 61/62/11
f 64/63/12 66/65/13 65/66/13 63/64/12
f 66/65/13 58/57/9 57/60/9 65/66/13
f 68/67/14 70/68/9 69/69/9 67/70/14
f 70/68/9 72/71/6 71/72/6 69/69/9
f 72/71/6 74/73/15 73/74/15 71/72/6
f 74/73/15 76/75/16 75/76/16 73/74/15
f 76/75/16 68/67/14 67/70/14 75/76/16
f 78/77/15 80/78/16 79/79/16 77/80/15
f 80/78/16 82/81/17 81/82/17 79/79/16
f 82/81/17 84/83/18 83/84/18 81/82/17
f 84/83/18 86/85/5 85/86/5 83/84/18
f 86/85/5 88/87/6 87/88/6 85/86/5
f 88/87/6 78/77/15 77/80/15 87/88/6
