# Blender v2.81 (sub 16) OBJ File: ''
# www.blender.org
mtllib AngleLine.mtl
o Plane
v -1.993311 0.000000 0.024444
v 1.993311 0.000000 0.024444
v -1.993311 0.000000 -0.024444
v 1.993311 0.000000 -0.024444
v -1.195987 0.000000 0.024444
v -0.398662 0.000000 0.024444
v 0.398662 0.000000 0.024444
v 1.195987 0.000000 0.024444
v 1.195987 0.000000 -0.024444
v 0.398662 0.000000 -0.024444
v -0.398662 0.000000 -0.024444
v -1.195987 0.000000 -0.024444
v -1.993311 -0.050506 0.024444
v 1.993311 -0.050506 0.024444
v -1.993311 -0.050506 -0.024444
v 1.993311 -0.050506 -0.024444
v -1.195987 -0.050506 0.024444
v -0.398662 -0.050506 0.024444
v 0.398662 -0.050506 0.024444
v 1.195987 -0.050506 0.024444
v 1.195987 -0.050506 -0.024444
v 0.398662 -0.050506 -0.024444
v -0.398662 -0.050506 -0.024444
v -1.195987 -0.050506 -0.024444
vt 0.622253 0.799953
vt 0.000079 0.799953
vt 0.000079 0.999921
vt 0.622253 0.999921
vt 0.622253 0.000079
vt 0.000079 0.000079
vt 0.000079 0.200047
vt 0.622253 0.200047
vt 0.000079 0.400016
vt 0.622253 0.400016
vt 0.000079 0.599984
vt 0.622253 0.599984
vt 0.622253 0.799953
vt 0.622253 0.999921
vt 0.000079 0.999921
vt 0.000079 0.799953
vt 0.622253 0.000079
vt 0.622253 0.200047
vt 0.000079 0.200047
vt 0.000079 0.000079
vt 0.622253 0.400016
vt 0.000079 0.400016
vt 0.622253 0.599984
vt 0.000079 0.599984
vn 0.0000 -1.0000 0.0000
vn 0.0000 1.0000 0.0000
vn 0.0000 0.0000 -1.0000
vn 0.0000 0.0000 1.0000
vn -1.0000 0.0000 0.0000
vn 1.0000 0.0000 0.0000
usemtl None
s off
f 8/1/1 9/2/1 4/3/1 2/4/1
f 1/5/1 3/6/1 12/7/1 5/8/1
f 5/8/1 12/7/1 11/9/1 6/10/1
f 6/10/1 11/9/1 10/11/1 7/12/1
f 7/12/1 10/11/1 9/2/1 8/1/1
f 20/13/2 14/14/2 16/15/2 21/16/2
f 13/17/2 17/18/2 24/19/2 15/20/2
f 17/18/2 18/21/2 23/22/2 24/19/2
f 18/21/2 19/23/2 22/24/2 23/22/2
f 19/23/2 20/13/2 21/16/2 22/24/2
f 1/5/3 5/8/3 17/18/3 13/17/3
f 11/9/4 12/7/4 24/19/4 23/22/4
f 8/1/3 2/4/3 14/14/3 20/13/3
f 4/3/4 9/2/4 21/16/4 16/15/4
f 5/8/3 6/10/3 18/21/3 17/18/3
f 2/4/5 4/3/5 16/15/5 14/14/5
f 9/2/4 10/11/4 22/24/4 21/16/4
f 6/10/3 7/12/3 19/23/3 18/21/3
f 12/7/4 3/6/4 15/20/4 24/19/4
f 10/11/4 11/9/4 23/22/4 22/24/4
f 3/6/6 1/5/6 13/17/6 15/20/6
f 7/12/3 8/1/3 20/13/3 19/23/3
