# Blender v2.81 (sub 16) OBJ File: 'Bootsie.blend'
# www.blender.org
mtllib FT.mtl
o Text_Text.003
v 0.641428 0.334099 -0.403026
v 0.912261 0.334099 -0.403026
v 0.953928 0.334099 -0.361359
v 0.912261 0.334099 -0.319693
v 0.641428 0.334099 -0.319693
v 0.599761 0.334099 -0.361359
v 0.558095 0.334099 -0.663443
v 0.641428 0.334099 -0.632193
v 0.641428 0.334099 -0.434276
v 0.578928 0.334099 -0.371776
v 0.558095 0.334099 -0.392609
v 0.912261 0.334099 -0.653026
v 0.642470 0.334099 -0.653026
v 0.559137 0.334099 -0.684276
v 0.611220 0.334099 -0.736359
v 0.943511 0.334099 -0.736359
v 0.995595 0.334099 -0.684276
v 0.912261 0.334099 -0.288443
v 0.974761 0.334099 -0.350943
v 0.995595 0.334099 -0.330109
v 0.995595 0.334099 -0.038443
v 0.943511 0.334099 0.013641
v 0.912261 0.334099 -0.069693
v 0.891428 0.334099 -0.069693
v 0.922678 0.334099 0.013641
v 0.610178 0.334099 0.013641
v 0.558095 0.334099 -0.038443
v 0.641428 0.334099 -0.069693
v 0.246636 0.334099 -0.371776
v 0.246636 0.334099 -0.484276
v 0.370595 0.334099 -0.736359
v 0.453928 0.334099 -0.694693
v 0.293511 0.334099 -0.371776
v 0.223720 0.334099 -0.350943
v 0.223720 0.334099 -0.238443
v 0.099761 0.334099 0.013641
v 0.016428 0.334099 -0.028026
v 0.176845 0.334099 -0.350943
v -0.306489 0.334099 -0.371776
v -0.348155 0.334099 -0.413443
v -0.348155 0.334099 -0.632193
v -0.264822 0.334099 -0.632193
v -0.264822 0.334099 -0.413443
v -0.171072 0.334099 -0.653026
v -0.440864 0.334099 -0.653026
v -0.524197 0.334099 -0.684276
v -0.472114 0.334099 -0.736359
v -0.139822 0.334099 -0.736359
v -0.087739 0.334099 -0.684276
v -0.348155 0.334099 -0.309276
v -0.306489 0.334099 -0.350943
v -0.264822 0.334099 -0.309276
v -0.264822 0.334099 -0.038443
v -0.316905 0.334099 0.013641
v -0.348155 0.334099 -0.069693
v -0.628364 0.334099 -0.736359
v -0.659614 0.334099 -0.653026
v -0.939822 0.334099 -0.653026
v -1.023155 0.334099 -0.684276
v -0.971072 0.334099 -0.736359
v -1.024197 0.334099 -0.663443
v -0.940864 0.334099 -0.632193
v -0.940864 0.334099 -0.434276
v -1.003364 0.334099 -0.371776
v -1.024197 0.334099 -0.392609
v -0.940864 0.334099 -0.403026
v -0.670030 0.334099 -0.403026
v -0.628364 0.334099 -0.361359
v -0.670030 0.334099 -0.319693
v -0.940864 0.334099 -0.319693
v -0.982530 0.334099 -0.361359
v -1.003364 0.334099 -0.350943
v -0.940864 0.334099 -0.288443
v -0.940864 0.334099 -0.069693
v -0.972114 0.334099 0.013641
v -1.024197 0.334099 -0.038443
v -1.024197 0.334099 -0.330109
v 0.641428 0.234099 -0.403026
v 0.912261 0.234099 -0.403026
v 0.953928 0.234099 -0.361359
v 0.912261 0.234099 -0.319693
v 0.641428 0.234099 -0.319693
v 0.599761 0.234099 -0.361359
v 0.558095 0.234099 -0.663443
v 0.641428 0.234099 -0.632193
v 0.641428 0.234099 -0.434276
v 0.578928 0.234099 -0.371776
v 0.558095 0.234099 -0.392609
v 0.912261 0.234099 -0.653026
v 0.642470 0.234099 -0.653026
v 0.559137 0.234099 -0.684276
v 0.611220 0.234099 -0.736359
v 0.943511 0.234099 -0.736359
v 0.995595 0.234099 -0.684276
v 0.912261 0.234099 -0.288443
v 0.974761 0.234099 -0.350943
v 0.995595 0.234099 -0.330109
v 0.995595 0.234099 -0.038443
v 0.943511 0.234099 0.013641
v 0.912261 0.234099 -0.069693
v 0.891428 0.234099 -0.069693
v 0.922678 0.234099 0.013641
v 0.610178 0.234099 0.013641
v 0.558095 0.234099 -0.038443
v 0.641428 0.234099 -0.069693
v 0.246636 0.234099 -0.371776
v 0.246636 0.234099 -0.484276
v 0.370595 0.234099 -0.736359
v 0.453928 0.234099 -0.694693
v 0.293511 0.234099 -0.371776
v 0.223720 0.234099 -0.350943
v 0.223720 0.234099 -0.238443
v 0.099761 0.234099 0.013641
v 0.016428 0.234099 -0.028026
v 0.176845 0.234099 -0.350943
v -0.306489 0.234099 -0.371776
v -0.348155 0.234099 -0.413443
v -0.348155 0.234099 -0.632193
v -0.264822 0.234099 -0.632193
v -0.264822 0.234099 -0.413443
v -0.171072 0.234099 -0.653026
v -0.440864 0.234099 -0.653026
v -0.524197 0.234099 -0.684276
v -0.472114 0.234099 -0.736359
v -0.139822 0.234099 -0.736359
v -0.087739 0.234099 -0.684276
v -0.348155 0.234099 -0.309276
v -0.306489 0.234099 -0.350943
v -0.264822 0.234099 -0.309276
v -0.264822 0.234099 -0.038443
v -0.316905 0.234099 0.013641
v -0.348155 0.234099 -0.069693
v -0.628364 0.234099 -0.736359
v -0.659614 0.234099 -0.653026
v -0.939822 0.234099 -0.653026
v -1.023155 0.234099 -0.684276
v -0.971072 0.234099 -0.736359
v -1.024197 0.234099 -0.663443
v -0.940864 0.234099 -0.632193
v -0.940864 0.234099 -0.434276
v -1.003364 0.234099 -0.371776
v -1.024197 0.234099 -0.392609
v -0.940864 0.234099 -0.403026
v -0.670030 0.234099 -0.403026
v -0.628364 0.234099 -0.361359
v -0.670030 0.234099 -0.319693
v -0.940864 0.234099 -0.319693
v -0.982530 0.234099 -0.361359
v -1.003364 0.234099 -0.350943
v -0.940864 0.234099 -0.288443
v -0.940864 0.234099 -0.069693
v -0.972114 0.234099 0.013641
v -1.024197 0.234099 -0.038443
v -1.024197 0.234099 -0.330109
v -0.940864 0.234099 -0.403026
v -0.940864 0.334099 -0.403026
v -0.670030 0.234099 -0.403026
v -0.670030 0.334099 -0.403026
v -0.628364 0.234099 -0.361359
v -0.628364 0.334099 -0.361359
v -0.670030 0.234099 -0.319693
v -0.670030 0.334099 -0.319693
v -0.940864 0.234099 -0.319693
v -0.940864 0.334099 -0.319693
v -0.982530 0.234099 -0.361359
v -0.982530 0.334099 -0.361359
v -0.628364 0.234099 -0.736359
v -0.628364 0.334099 -0.736359
v -0.659614 0.234099 -0.653026
v -0.659614 0.334099 -0.653026
v -0.939822 0.234099 -0.653026
v -0.939822 0.334099 -0.653026
v -1.023155 0.234099 -0.684276
v -1.023155 0.334099 -0.684276
v -0.971072 0.234099 -0.736359
v -0.971072 0.334099 -0.736359
v -1.024197 0.234099 -0.663443
v -1.024197 0.334099 -0.663443
v -0.940864 0.234099 -0.632193
v -0.940864 0.334099 -0.632193
v -0.940864 0.234099 -0.434276
v -0.940864 0.334099 -0.434276
v -1.003364 0.234099 -0.371776
v -1.003364 0.334099 -0.371776
v -1.024197 0.234099 -0.392609
v -1.024197 0.334099 -0.392609
v -1.003364 0.234099 -0.350943
v -1.003364 0.334099 -0.350943
v -0.940864 0.234099 -0.288443
v -0.940864 0.334099 -0.288443
v -0.940864 0.234099 -0.069693
v -0.940864 0.334099 -0.069693
v -0.972114 0.234099 0.013641
v -0.972114 0.334099 0.013641
v -1.024197 0.234099 -0.038443
v -1.024197 0.334099 -0.038443
v -1.024197 0.234099 -0.330109
v -1.024197 0.334099 -0.330109
v -0.348155 0.234099 -0.309276
v -0.348155 0.334099 -0.309276
v -0.306489 0.234099 -0.350943
v -0.306489 0.334099 -0.350943
v -0.264822 0.234099 -0.309276
v -0.264822 0.334099 -0.309276
v -0.264822 0.234099 -0.038443
v -0.264822 0.334099 -0.038443
v -0.316905 0.234099 0.013641
v -0.316905 0.334099 0.013641
v -0.348155 0.234099 -0.069693
v -0.348155 0.334099 -0.069693
v -0.306489 0.234099 -0.371776
v -0.306489 0.334099 -0.371776
v -0.348155 0.234099 -0.413443
v -0.348155 0.334099 -0.413443
v -0.348155 0.234099 -0.632193
v -0.348155 0.334099 -0.632193
v -0.264822 0.234099 -0.632193
v -0.264822 0.334099 -0.632193
v -0.264822 0.234099 -0.413443
v -0.264822 0.334099 -0.413443
v -0.171072 0.234099 -0.653026
v -0.171072 0.334099 -0.653026
v -0.440864 0.234099 -0.653026
v -0.440864 0.334099 -0.653026
v -0.524197 0.234099 -0.684276
v -0.524197 0.334099 -0.684276
v -0.472114 0.234099 -0.736359
v -0.472114 0.334099 -0.736359
v -0.139822 0.234099 -0.736359
v -0.139822 0.334099 -0.736359
v -0.087739 0.234099 -0.684276
v -0.087739 0.334099 -0.684276
v 0.246636 0.234099 -0.371776
v 0.246636 0.334099 -0.371776
v 0.246636 0.234099 -0.484276
v 0.246636 0.334099 -0.484276
v 0.370595 0.234099 -0.736359
v 0.370595 0.334099 -0.736359
v 0.453928 0.234099 -0.694693
v 0.453928 0.334099 -0.694693
v 0.293511 0.234099 -0.371776
v 0.293511 0.334099 -0.371776
v 0.223720 0.234099 -0.350943
v 0.223720 0.334099 -0.350943
v 0.223720 0.234099 -0.238443
v 0.223720 0.334099 -0.238443
v 0.099761 0.234099 0.013641
v 0.099761 0.334099 0.013641
v 0.016428 0.234099 -0.028026
v 0.016428 0.334099 -0.028026
v 0.176845 0.234099 -0.350943
v 0.176845 0.334099 -0.350943
v 0.641428 0.234099 -0.403026
v 0.641428 0.334099 -0.403026
v 0.912261 0.234099 -0.403026
v 0.912261 0.334099 -0.403026
v 0.953928 0.234099 -0.361359
v 0.953928 0.334099 -0.361359
v 0.912261 0.234099 -0.319693
v 0.912261 0.334099 -0.319693
v 0.641428 0.234099 -0.319693
v 0.641428 0.334099 -0.319693
v 0.599761 0.234099 -0.361359
v 0.599761 0.334099 -0.361359
v 0.912261 0.234099 -0.288443
v 0.912261 0.334099 -0.288443
v 0.974761 0.234099 -0.350943
v 0.974761 0.334099 -0.350943
v 0.995595 0.234099 -0.330109
v 0.995595 0.334099 -0.330109
v 0.995595 0.234099 -0.038443
v 0.995595 0.334099 -0.038443
v 0.943511 0.234099 0.013641
v 0.943511 0.334099 0.013641
v 0.912261 0.234099 -0.069693
v 0.912261 0.334099 -0.069693
v 0.891428 0.234099 -0.069693
v 0.891428 0.334099 -0.069693
v 0.922678 0.234099 0.013641
v 0.922678 0.334099 0.013641
v 0.610178 0.234099 0.013641
v 0.610178 0.334099 0.013641
v 0.558095 0.234099 -0.038443
v 0.558095 0.334099 -0.038443
v 0.641428 0.234099 -0.069693
v 0.641428 0.334099 -0.069693
v 0.558095 0.234099 -0.663443
v 0.558095 0.334099 -0.663443
v 0.641428 0.234099 -0.632193
v 0.641428 0.334099 -0.632193
v 0.641428 0.234099 -0.434276
v 0.641428 0.334099 -0.434276
v 0.578928 0.234099 -0.371776
v 0.578928 0.334099 -0.371776
v 0.558095 0.234099 -0.392609
v 0.558095 0.334099 -0.392609
v 0.912261 0.234099 -0.653026
v 0.912261 0.334099 -0.653026
v 0.642470 0.234099 -0.653026
v 0.642470 0.334099 -0.653026
v 0.559137 0.234099 -0.684276
v 0.559137 0.334099 -0.684276
v 0.611220 0.234099 -0.736359
v 0.611220 0.334099 -0.736359
v 0.943511 0.234099 -0.736359
v 0.943511 0.334099 -0.736359
v 0.995595 0.234099 -0.684276
v 0.995595 0.334099 -0.684276
vt 0.228975 0.786131
vt 0.181261 0.762274
vt 0.193189 0.750345
vt 0.181261 0.929275
vt 0.228975 0.911382
vt 0.296845 0.750345
vt 0.278952 0.941204
vt 0.278952 0.798060
vt 0.326667 0.959097
vt 0.211082 0.959097
vt 0.326667 0.780167
vt 0.810375 0.826883
vt 0.840196 0.606799
vt 0.840196 0.797061
vt 0.810374 0.576977
vt 0.792481 0.779167
vt 0.792481 0.624691
vt 0.841327 0.839942
vt 0.889042 0.977122
vt 0.841327 0.995015
vt 0.889042 0.863800
vt 0.853256 0.828014
vt 0.968508 0.576977
vt 0.944650 0.755907
vt 0.944650 0.600834
vt 0.968508 0.779765
vt 0.992365 0.600834
vt 0.992365 0.755907
vt 0.896111 0.524104
vt 0.872075 0.305711
vt 0.896111 0.317651
vt 0.843416 0.363399
vt 0.842765 0.524242
vt 0.332948 0.798381
vt 0.385643 0.959086
vt 0.332297 0.959224
vt 0.385643 0.752634
vt 0.361606 0.740693
vt 0.823741 0.305711
vt 0.793919 0.525795
vt 0.793919 0.335532
vt 0.823741 0.555617
vt 0.841634 0.353426
vt 0.841634 0.507902
vt 0.532180 0.764550
vt 0.484466 0.764550
vt 0.508323 0.740693
vt 0.532180 0.901730
vt 0.484466 0.919623
vt 0.514287 0.949445
vt 0.000565 0.860521
vt 0.048280 0.985772
vt 0.000565 0.985772
vt 0.048280 0.860521
vt 0.024423 0.836663
vt 0.956477 0.000565
vt 0.932620 0.179496
vt 0.932620 0.024423
vt 0.956477 0.203353
vt 0.980334 0.024423
vt 0.980334 0.179496
vt 0.131284 0.762274
vt 0.083569 0.786131
vt 0.119355 0.750345
vt 0.131284 0.929275
vt 0.083569 0.911382
vt 0.101462 0.959097
vt 0.465442 0.740693
vt 0.435620 0.966741
vt 0.435620 0.770514
vt 0.483335 0.948848
vt 0.483335 0.788407
vt 0.750789 0.976347
vt 0.703074 0.839167
vt 0.750789 0.821274
vt 0.703074 0.952490
vt 0.738860 0.988276
vt 0.230106 0.947168
vt 0.277821 0.923311
vt 0.242035 0.959097
vt 0.230106 0.780167
vt 0.277821 0.798060
vt 0.581026 0.931552
vt 0.563133 0.740693
vt 0.581026 0.788408
vt 0.533311 0.949445
vt 0.259928 0.750345
vt 0.533311 0.770514
vt 0.048280 0.805711
vt 0.018459 0.585627
vt 0.048280 0.615448
vt 0.018459 0.835532
vt 0.000565 0.633342
vt 0.000566 0.787818
vt 0.654228 0.970383
vt 0.701943 0.833203
vt 0.701943 0.988276
vt 0.654228 0.857060
vt 0.690014 0.821274
vt 0.937888 0.975570
vt 0.914030 0.796639
vt 0.937888 0.820497
vt 0.914030 0.999427
vt 0.890173 0.820496
vt 0.890173 0.975570
vt 0.926552 0.524242
vt 0.950589 0.305848
vt 0.950589 0.512301
vt 0.897894 0.466553
vt 0.897242 0.305711
vt 0.943519 0.577115
vt 0.890824 0.737819
vt 0.890173 0.576977
vt 0.943519 0.783567
vt 0.919483 0.795508
vt 0.889042 0.797061
vt 0.859220 0.576977
vt 0.889042 0.606799
vt 0.859220 0.826883
vt 0.841327 0.624692
vt 0.841327 0.779168
vt 0.582157 0.925587
vt 0.629872 0.925587
vt 0.606014 0.949445
vt 0.629872 0.788407
vt 0.582157 0.770514
vt 0.611979 0.740693
vt 0.951720 0.454819
vt 0.999435 0.329568
vt 0.999435 0.454819
vt 0.951720 0.329568
vt 0.975577 0.305711
vt 0.992365 0.959826
vt 0.968508 0.780896
vt 0.992365 0.804753
vt 0.968508 0.983684
vt 0.944650 0.804753
vt 0.944650 0.959826
vt 0.132415 0.923311
vt 0.180130 0.947168
vt 0.168201 0.959097
vt 0.180130 0.780167
vt 0.132415 0.798060
vt 0.150308 0.750345
vt 0.434489 0.966741
vt 0.404667 0.740693
vt 0.434489 0.770514
vt 0.386774 0.948848
vt 0.386774 0.788407
vt 0.792481 0.977122
vt 0.840196 0.839942
vt 0.840196 0.995015
vt 0.792481 0.863800
vt 0.828267 0.828014
vt 0.788199 0.017857
vt 0.788199 0.236573
vt 0.731448 0.180397
vt 0.737566 0.092077
vt 0.728163 0.270701
vt 0.715283 0.192430
vt 0.649639 0.253410
vt 0.700272 0.179189
vt 0.649639 0.034693
vt 0.706389 0.090869
vt 0.709675 0.000565
vt 0.722555 0.078837
vt 0.616371 0.607926
vt 0.616371 0.736426
vt 0.527484 0.686994
vt 0.537718 0.657088
vt 0.384601 0.739562
vt 0.428138 0.678041
vt 0.332297 0.667549
vt 0.406857 0.656048
vt 0.364203 0.580022
vt 0.424747 0.640827
vt 0.317457 0.625063
vt 0.317457 0.742794
vt 0.238966 0.691495
vt 0.246494 0.668355
vt 0.123830 0.749214
vt 0.183972 0.684376
vt 0.083569 0.641438
vt 0.172403 0.660594
vt 0.100148 0.600532
vt 0.180597 0.652846
vt 0.596350 0.080536
vt 0.572368 0.090371
vt 0.517087 0.032019
vt 0.612575 0.000565
vt 0.559622 0.174176
vt 0.490361 0.220491
vt 0.574389 0.199567
vt 0.581942 0.273077
vt 0.593808 0.186548
vt 0.648508 0.234735
vt 0.604443 0.087130
vt 0.648508 0.014162
vt 0.653097 0.537415
vt 0.595768 0.574434
vt 0.577733 0.498287
vt 0.593635 0.484605
vt 0.517824 0.562783
vt 0.561188 0.485819
vt 0.499533 0.350861
vt 0.559516 0.390747
vt 0.558995 0.305711
vt 0.576230 0.375681
vt 0.653097 0.344130
vt 0.593764 0.397924
vt 0.862179 0.145904
vt 0.876378 0.139659
vt 0.931489 0.197732
vt 0.867001 0.227846
vt 0.884146 0.086909
vt 0.931489 0.000565
vt 0.862000 0.081234
vt 0.813751 0.006068
vt 0.849623 0.134764
vt 0.789330 0.201998
vt 0.489230 0.041019
vt 0.489230 0.250586
vt 0.428217 0.212452
vt 0.429613 0.096981
vt 0.425221 0.304580
vt 0.408212 0.235700
vt 0.340831 0.282653
vt 0.391513 0.219618
vt 0.332297 0.043948
vt 0.391407 0.088125
vt 0.394727 0.000565
vt 0.410427 0.071997
vt 0.100364 0.092038
vt 0.073146 0.118815
vt 0.000565 0.080918
vt 0.091728 0.000565
vt 0.074133 0.216619
vt 0.041302 0.310853
vt 0.105526 0.216932
vt 0.162464 0.283885
vt 0.117783 0.099464
vt 0.162464 0.010495
vt 0.280890 0.294015
vt 0.163595 0.232382
vt 0.235220 0.182497
vt 0.260437 0.214632
vt 0.201811 0.006923
vt 0.252172 0.085296
vt 0.331166 0.000565
vt 0.283664 0.092075
vt 0.331166 0.266466
vt 0.275396 0.206070
vt 0.654228 0.558555
vt 0.654228 0.339838
vt 0.710979 0.396014
vt 0.704861 0.484334
vt 0.714264 0.305711
vt 0.727144 0.383982
vt 0.792788 0.323002
vt 0.742155 0.397222
vt 0.792788 0.541718
vt 0.736038 0.485542
vt 0.732752 0.575846
vt 0.719872 0.497575
vt 0.027292 0.343438
vt 0.122780 0.311984
vt 0.106555 0.391955
vt 0.082572 0.401790
vt 0.158712 0.325581
vt 0.114648 0.398549
vt 0.158713 0.546154
vt 0.104012 0.497967
vt 0.092147 0.584496
vt 0.084594 0.510986
vt 0.000565 0.531910
vt 0.069827 0.485595
vt 0.381680 0.314964
vt 0.498402 0.305711
vt 0.452916 0.394647
vt 0.426661 0.391745
vt 0.498402 0.546600
vt 0.440698 0.489219
vt 0.417981 0.578891
vt 0.417432 0.498452
vt 0.332297 0.512192
vt 0.405732 0.473306
vt 0.750036 0.680096
vt 0.724656 0.680658
vt 0.662362 0.606251
vt 0.791350 0.576977
vt 0.715960 0.734799
vt 0.654228 0.797822
vt 0.733387 0.748884
vt 0.763804 0.820143
vt 0.741163 0.744110
vt 0.791350 0.803003
vt 0.225705 0.390568
vt 0.224625 0.506004
vt 0.165447 0.559270
vt 0.163595 0.350544
vt 0.242389 0.529826
vt 0.256664 0.599401
vt 0.260558 0.514676
vt 0.317457 0.558465
vt 0.264875 0.383341
vt 0.317457 0.318834
vt 0.247359 0.366156
vt 0.230665 0.295146
vn 0.0000 1.0000 0.0000
vn 0.0000 -1.0000 0.0000
vn -0.3827 0.0000 -0.9239
vn 0.3827 0.0000 -0.9239
vn 1.0000 0.0000 0.0000
vn 0.3827 0.0000 0.9239
vn -0.3827 0.0000 0.9239
vn -1.0000 0.0000 0.0000
vn 0.8219 0.0000 -0.5696
vn 0.5696 0.0000 0.8219
vn -0.1784 0.0000 0.9839
vn -0.9773 0.0000 0.2117
vn -0.5696 0.0000 -0.8219
vn 0.9239 0.0000 0.3827
vn 0.0000 0.0000 1.0000
vn -0.9239 0.0000 0.3827
vn 0.0000 0.0000 -1.0000
vn 0.9239 0.0000 -0.3827
vn 0.9839 0.0000 0.1784
vn 0.2117 0.0000 0.9773
vn -0.9239 0.0000 -0.3827
vn -0.2117 0.0000 0.9773
vn -0.9839 0.0000 0.1784
vn -0.7071 0.0000 -0.7071
vn 0.7071 0.0000 -0.7071
vn 0.1784 0.0000 0.9839
vn 0.9773 0.0000 0.2117
vn -0.7071 0.0000 0.7071
vn -0.9740 0.0000 -0.2265
vn -0.3193 0.0000 -0.9476
vn 0.9483 0.0000 -0.3174
vn 0.5268 0.0000 0.8499
vn 0.9740 0.0000 0.2265
vn 0.3193 0.0000 0.9476
vn -0.9483 0.0000 0.3174
vn -0.5268 0.0000 -0.8499
vn 0.5696 0.0000 -0.8219
vn 0.8219 0.0000 0.5696
vn -0.9773 0.0000 -0.2117
vn -0.1784 0.0000 -0.9839
usemtl None
s off
f 18/1/1 20/2/1 19/3/1
f 18/1/1 21/4/1 20/2/1
f 23/5/1 21/4/1 18/1/1
f 27/6/1 24/7/1 28/8/1
f 27/6/1 25/9/1 24/7/1
f 22/10/1 21/4/1 23/5/1
f 26/11/1 25/9/1 27/6/1
f 14/12/1 16/13/1 15/14/1
f 14/12/1 17/15/1 16/13/1
f 13/16/1 17/15/1 14/12/1
f 13/16/1 12/17/1 17/15/1
f 11/18/1 8/19/1 7/20/1
f 11/18/1 9/21/1 8/19/1
f 11/18/1 10/22/1 9/21/1
f 6/23/1 2/24/1 1/25/1
f 6/23/1 3/26/1 2/24/1
f 5/27/1 3/26/1 6/23/1
f 5/27/1 4/28/1 3/26/1
f 37/29/1 34/30/1 38/31/1
f 37/29/1 35/32/1 34/30/1
f 37/29/1 36/33/1 35/32/1
f 30/34/1 32/35/1 31/36/1
f 30/34/1 33/37/1 32/35/1
f 29/38/1 33/37/1 30/34/1
f 46/39/1 48/40/1 47/41/1
f 46/39/1 49/42/1 48/40/1
f 45/43/1 49/42/1 46/39/1
f 45/43/1 44/44/1 49/42/1
f 50/45/1 52/46/1 51/47/1
f 55/48/1 52/46/1 50/45/1
f 55/48/1 53/49/1 52/46/1
f 54/50/1 53/49/1 55/48/1
f 40/51/1 42/52/1 41/53/1
f 40/51/1 43/54/1 42/52/1
f 39/55/1 43/54/1 40/51/1
f 71/56/1 67/57/1 66/58/1
f 71/56/1 68/59/1 67/57/1
f 70/60/1 68/59/1 71/56/1
f 70/60/1 69/61/1 68/59/1
f 77/62/1 73/63/1 72/64/1
f 76/65/1 73/63/1 77/62/1
f 76/65/1 74/66/1 73/63/1
f 76/65/1 75/67/1 74/66/1
f 59/68/1 56/69/1 60/70/1
f 59/68/1 57/71/1 56/69/1
f 58/72/1 57/71/1 59/68/1
f 65/73/1 62/74/1 61/75/1
f 65/73/1 63/76/1 62/74/1
f 65/73/1 64/77/1 63/76/1
f 97/78/2 95/79/2 96/80/2
f 98/81/2 95/79/2 97/78/2
f 98/81/2 100/82/2 95/79/2
f 101/83/2 104/84/2 105/85/2
f 102/86/2 104/84/2 101/83/2
f 98/81/2 99/87/2 100/82/2
f 102/86/2 103/88/2 104/84/2
f 93/89/2 91/90/2 92/91/2
f 94/92/2 91/90/2 93/89/2
f 94/92/2 90/93/2 91/90/2
f 89/94/2 90/93/2 94/92/2
f 85/95/2 88/96/2 84/97/2
f 86/98/2 88/96/2 85/95/2
f 87/99/2 88/96/2 86/98/2
f 79/100/2 83/101/2 78/102/2
f 80/103/2 83/101/2 79/100/2
f 80/103/2 82/104/2 83/101/2
f 81/105/2 82/104/2 80/103/2
f 111/106/2 114/107/2 115/108/2
f 112/109/2 114/107/2 111/106/2
f 113/110/2 114/107/2 112/109/2
f 109/111/2 107/112/2 108/113/2
f 110/114/2 107/112/2 109/111/2
f 110/114/2 106/115/2 107/112/2
f 125/116/2 123/117/2 124/118/2
f 126/119/2 123/117/2 125/116/2
f 126/119/2 122/120/2 123/117/2
f 121/121/2 122/120/2 126/119/2
f 129/122/2 127/123/2 128/124/2
f 129/122/2 132/125/2 127/123/2
f 130/126/2 132/125/2 129/122/2
f 130/126/2 131/127/2 132/125/2
f 119/128/2 117/129/2 118/130/2
f 120/131/2 117/129/2 119/128/2
f 120/131/2 116/132/2 117/129/2
f 144/133/2 148/134/2 143/135/2
f 145/136/2 148/134/2 144/133/2
f 145/136/2 147/137/2 148/134/2
f 146/138/2 147/137/2 145/136/2
f 150/139/2 154/140/2 149/141/2
f 150/139/2 153/142/2 154/140/2
f 151/143/2 153/142/2 150/139/2
f 152/144/2 153/142/2 151/143/2
f 133/145/2 136/146/2 137/147/2
f 134/148/2 136/146/2 133/145/2
f 134/148/2 135/149/2 136/146/2
f 139/150/2 142/151/2 138/152/2
f 140/153/2 142/151/2 139/150/2
f 141/154/2 142/151/2 140/153/2
s 1
f 156/155/3 158/156/4 157/157/4 155/158/3
f 158/156/4 160/159/5 159/160/5 157/157/4
f 160/159/5 162/161/6 161/162/6 159/160/5
f 162/161/6 164/163/7 163/164/7 161/162/6
f 164/163/7 166/165/8 165/166/8 163/164/7
f 166/165/8 156/155/3 155/158/3 165/166/8
f 168/167/9 170/168/10 169/169/10 167/170/9
f 170/168/10 172/171/11 171/172/11 169/169/10
f 172/171/11 174/173/12 173/174/12 171/172/11
f 174/173/12 176/175/3 175/176/3 173/174/12
f 176/175/3 168/167/9 167/170/9 175/176/3
f 178/177/13 180/178/9 179/179/9 177/180/13
f 180/178/9 182/181/14 181/182/14 179/179/9
f 182/181/14 184/183/15 183/184/15 181/182/14
f 184/183/15 186/185/16 185/186/16 183/184/15
f 186/185/16 178/177/13 177/180/13 185/186/16
f 188/187/17 190/188/18 189/189/18 187/190/17
f 190/188/18 192/191/19 191/192/19 189/189/18
f 192/191/19 194/193/20 193/194/20 191/192/19
f 194/193/20 196/195/16 195/196/16 193/194/20
f 196/195/16 198/197/21 197/198/21 195/196/16
f 198/197/21 188/187/17 187/190/17 197/198/21
f 200/199/21 202/200/17 201/201/17 199/202/21
f 202/200/17 204/203/18 203/204/18 201/201/17
f 204/203/18 206/205/14 205/206/14 203/204/18
f 206/205/14 208/207/22 207/208/22 205/206/14
f 208/207/22 210/209/23 209/210/23 207/208/22
f 210/209/23 200/199/21 199/202/21 209/210/23
f 212/211/15 214/212/16 213/213/16 211/214/15
f 214/212/16 216/215/24 215/216/24 213/213/16
f 216/215/24 218/217/25 217/218/25 215/216/24
f 218/217/25 220/219/14 219/220/14 217/218/25
f 220/219/14 212/211/15 211/214/15 219/220/14
f 222/221/26 224/222/11 223/223/11 221/224/26
f 224/222/11 226/225/12 225/226/12 223/223/11
f 226/225/12 228/227/3 227/228/3 225/226/12
f 228/227/3 230/229/4 229/230/4 227/228/3
f 230/229/4 232/231/27 231/232/27 229/230/4
f 232/231/27 222/221/26 221/224/26 231/232/27
f 234/233/28 236/234/29 235/235/29 233/236/28
f 236/234/29 238/237/30 237/238/30 235/235/29
f 238/237/30 240/239/31 239/240/31 237/238/30
f 240/239/31 242/241/32 241/242/32 239/240/31
f 242/241/32 234/233/28 233/236/28 241/242/32
f 244/243/25 246/244/33 245/245/33 243/246/25
f 246/244/33 248/247/34 247/248/34 245/245/33
f 248/247/34 250/249/35 249/250/35 247/248/34
f 250/249/35 252/251/36 251/252/36 249/250/35
f 252/251/36 244/243/25 243/246/25 251/252/36
f 254/253/3 256/254/4 255/255/4 253/256/3
f 256/254/4 258/257/5 257/258/5 255/255/4
f 258/257/5 260/259/6 259/260/6 257/258/5
f 260/259/6 262/261/7 261/262/7 259/260/6
f 262/261/7 264/263/8 263/264/8 261/262/7
f 264/263/8 254/253/3 253/256/3 263/264/8
f 266/265/21 268/266/17 267/267/17 265/268/21
f 268/266/17 270/269/18 269/270/18 267/267/17
f 270/269/18 272/271/14 271/272/14 269/270/18
f 272/271/14 274/273/22 273/274/22 271/272/14
f 274/273/22 276/275/23 275/276/23 273/274/22
f 276/275/23 266/265/21 265/268/21 275/276/23
f 278/277/37 280/278/38 279/279/38 277/280/37
f 280/278/38 282/281/7 281/282/7 279/279/38
f 282/281/7 284/283/39 283/284/39 281/282/7
f 284/283/39 286/285/40 285/286/40 283/284/39
f 286/285/40 278/277/37 277/280/37 285/286/40
f 288/287/13 290/288/9 289/289/9 287/290/13
f 290/288/9 292/291/14 291/292/14 289/289/9
f 292/291/14 294/293/15 293/294/15 291/292/14
f 294/293/15 296/295/16 295/296/16 293/294/15
f 296/295/16 288/287/13 287/290/13 295/296/16
f 298/297/26 300/298/11 299/299/11 297/300/26
f 300/298/11 302/301/12 301/302/12 299/299/11
f 302/301/12 304/303/3 303/304/3 301/302/12
f 304/303/3 306/305/4 305/306/4 303/304/3
f 306/305/4 308/307/27 307/308/27 305/306/4
f 308/307/27 298/297/26 297/300/26 307/308/27
