# Blender v2.81 (sub 16) OBJ File: ''
# www.blender.org
mtllib Plate.mtl
o Plane
v -1.000000 0.000000 0.400000
v 1.000000 0.000000 0.400000
v -1.000000 0.000000 -0.400000
v 1.000000 0.000000 -0.400000
v -1.000000 0.000000 -0.266667
v -1.000000 0.000000 -0.097752
v -1.000000 0.000000 -0.000000
v -1.000000 0.000000 0.109551
v -1.000000 0.000000 0.266667
v 1.000000 0.000000 0.266667
v 1.000000 0.000000 0.109551
v 1.000000 0.000000 -0.000000
v 1.000000 0.000000 -0.097752
v 1.000000 0.000000 -0.266667
v -0.666667 0.000000 0.400000
v -0.333333 0.000000 0.400000
v 0.000000 0.000000 0.400000
v 0.333333 0.000000 0.400000
v 0.666667 0.000000 0.400000
v 0.666667 0.000000 -0.400000
v 0.333333 0.000000 -0.400000
v -0.000000 0.000000 -0.400000
v -0.333333 0.000000 -0.400000
v -0.666667 0.000000 -0.400000
v 0.675144 0.058277 0.270025
v 0.337567 0.058277 0.270025
v -0.000009 0.058277 0.270025
v -0.337586 0.058277 0.270025
v -0.675162 0.058277 0.270025
v 0.675144 0.058277 0.110909
v 0.337567 0.058277 0.110909
v -0.000009 0.058277 0.110909
v -0.337586 0.058277 0.110909
v -0.675162 0.058277 0.110909
v 0.675144 0.058277 -0.000037
v 0.337567 0.058277 -0.000037
v -0.000009 0.058277 -0.000037
v -0.337586 0.058277 -0.000037
v -0.675162 0.058277 -0.000037
v 0.675144 0.058277 -0.099033
v 0.337567 0.058277 -0.099033
v -0.000009 0.058277 -0.099033
v -0.337586 0.058277 -0.099033
v -0.675162 0.058277 -0.099033
v 0.675144 0.058277 -0.270098
v 0.337567 0.058277 -0.270098
v -0.000009 0.058277 -0.270098
v -0.337586 0.058277 -0.270098
v -0.675162 0.058277 -0.270098
v -0.958854 0.000000 -0.400000
v -0.971070 0.058277 0.270025
v -0.971070 0.058277 0.110909
v -0.971070 0.058277 -0.000037
v -0.971070 0.058277 -0.099033
v -0.971070 0.058277 -0.270098
v -0.958854 0.000000 0.400000
v 0.963935 0.000000 0.400000
v 0.963935 0.000000 -0.400000
v 0.976197 0.058277 0.270025
v 0.976197 0.058277 0.110909
v 0.976197 0.058277 -0.000037
v 0.976197 0.058277 -0.099033
v 0.976197 0.058277 -0.270098
v -1.000000 0.000000 0.368358
v 1.000000 0.000000 0.368358
v -0.675162 0.058277 0.373010
v -0.337586 0.058277 0.373010
v -0.000009 0.058277 0.373010
v 0.337567 0.058277 0.373010
v 0.675144 0.058277 0.373010
v -0.971070 0.058277 0.373010
v 0.976197 0.058277 0.373010
v 1.000000 0.000000 -0.360066
v -1.000000 0.000000 -0.360066
v -0.675162 0.058277 -0.364686
v -0.337586 0.058277 -0.364686
v -0.000009 0.058277 -0.364686
v 0.337567 0.058277 -0.364686
v 0.675144 0.058277 -0.364686
v -0.971070 0.058277 -0.364686
v 0.976197 0.058277 -0.364686
v -1.000000 0.000000 0.384179
v 1.000000 0.000000 0.384179
v -0.670915 0.049693 0.386505
v -0.335460 0.049693 0.386505
v -0.000005 0.049693 0.386505
v 0.335450 0.049693 0.386505
v 0.670905 0.049693 0.386505
v -0.964962 0.049693 0.386505
v 0.970066 0.049693 0.386505
v -0.979427 0.000000 -0.400000
v -0.985535 0.049693 0.268346
v -0.985535 0.049693 0.110230
v -0.985535 0.049693 -0.000018
v -0.985535 0.049693 -0.098393
v -0.985535 0.049693 -0.268382
v -0.979427 0.000000 0.400000
v -0.985535 0.049693 0.370684
v -0.985535 0.049693 -0.362376
v -0.982481 0.035124 0.385342
v 0.981968 0.000000 0.400000
v 0.981968 0.000000 -0.400000
v 0.988099 0.049693 0.268346
v 0.988099 0.049693 0.110230
v 0.988099 0.049693 -0.000018
v 0.988099 0.049693 -0.098393
v 0.988099 0.049693 -0.268382
v 0.988099 0.049693 0.370684
v 0.988099 0.049693 -0.362376
v 0.985033 0.035124 0.385342
v 1.000000 0.000000 -0.380033
v -0.670915 0.049693 -0.382343
v -0.335460 0.049693 -0.382343
v -0.000005 0.049693 -0.382343
v 0.335450 0.049693 -0.382343
v 0.670905 0.049693 -0.382343
v -0.964962 0.049693 -0.382343
v 0.970066 0.049693 -0.382343
v -1.000000 0.000000 -0.380033
v -0.982481 0.035124 -0.381188
v 0.985033 0.035124 -0.381188
vt 0.991651 0.973234
vt 1.000000 0.973523
vt 1.000000 1.000000
vt 0.991651 0.999685
vt 0.993225 0.043090
vt 1.001574 0.042827
vt 1.000000 0.166667
vt 0.991651 0.166877
vt 1.000000 0.333333
vt 0.991651 0.333438
vt 1.000000 0.500000
vt 0.991651 0.500000
vt 1.000000 0.666667
vt 0.991651 0.666562
vt 1.000000 0.833333
vt 0.991651 0.833123
vt 0.016698 0.666310
vt 0.166667 0.666667
vt 0.166667 0.833333
vt 0.016698 0.832619
vt 0.333333 0.666667
vt 0.333333 0.833333
vt 0.500000 0.666667
vt 0.500000 0.833333
vt 0.666667 0.666667
vt 0.666667 0.833333
vt 0.833333 0.666667
vt 0.833333 0.833333
vt 0.016698 0.500000
vt 0.166667 0.500000
vt 0.333333 0.500000
vt 0.500000 0.500000
vt 0.666667 0.500000
vt 0.833333 0.500000
vt 0.016698 0.333690
vt 0.166667 0.333333
vt 0.333333 0.333333
vt 0.500000 0.333333
vt 0.666667 0.333333
vt 0.833333 0.333333
vt 0.016698 0.167381
vt 0.166667 0.166667
vt 0.333333 0.166667
vt 0.500000 0.166667
vt 0.666667 0.166667
vt 0.833333 0.166667
vt 0.018271 0.043719
vt 0.168240 0.042827
vt 0.334907 0.042827
vt 0.501574 0.042827
vt 0.668240 0.042827
vt 0.834907 0.042827
vt 0.016698 0.972542
vt 0.166667 0.973523
vt 0.166667 1.000000
vt 0.016698 0.998929
vt 0.333333 0.973523
vt 0.333333 1.000000
vt 0.500000 0.973523
vt 0.500000 1.000000
vt 0.666667 0.973523
vt 0.666667 1.000000
vt 0.833333 0.973523
vt 0.833333 1.000000
vt 0.008349 0.973032
vt 0.008349 0.999465
vt 0.009922 0.043273
vt 0.008349 0.167024
vt 0.008349 0.333512
vt 0.008349 0.500000
vt 0.008349 0.666488
vt 0.008349 0.832976
vt 0.983302 0.666457
vt 0.983302 0.832913
vt 0.983302 0.500000
vt 0.983302 0.333543
vt 0.983302 0.167087
vt 0.984876 0.043352
vt 0.983302 0.972946
vt 0.983302 0.999370
vt 0.834120 0.021414
vt 0.984089 0.021991
vt 0.009136 0.021904
vt 0.017484 0.022395
vt 0.667453 0.021414
vt 0.500787 0.021413
vt 0.334120 0.021414
vt 0.167453 0.021414
vt 0.992438 0.021702
vt 1.000787 0.021414
vt 0.983302 0.946521
vt 0.833333 0.947046
vt 0.016698 0.946154
vt 0.008349 0.946600
vt 0.666667 0.947046
vt 0.500000 0.947046
vt 0.333333 0.947046
vt 0.166667 0.947046
vt 1.000000 0.947046
vt 0.991651 0.946784
vt 0.991651 0.000315
vt 1.000000 0.000000
vt 0.016698 0.001071
vt 0.166667 0.000000
vt 0.333333 0.000000
vt 0.500000 0.000000
vt 0.666667 0.000000
vt 0.833333 0.000000
vt 0.008349 0.000535
vt 0.983302 0.000630
vt 0.000000 0.000000
vt 0.000787 0.021414
vt 0.000000 0.833333
vt 0.000000 0.947046
vt 0.001574 0.042827
vt 0.000000 0.666667
vt 0.000000 0.500000
vt 0.000000 0.333333
vt 0.000000 0.166667
vt 0.000000 0.973523
vt 0.000000 1.000000
vn 0.6151 0.5596 -0.5555
vn 0.9725 0.2329 0.0000
vn 0.0000 1.0000 0.0000
vn -0.0000 0.3348 -0.9423
vn -0.1705 0.3736 -0.9118
vn -0.5104 0.8600 0.0000
vn 0.0000 0.8437 0.5367
vn -0.4941 0.5857 0.6425
vn 0.9304 0.2853 0.2300
vn 0.5668 0.5112 0.6461
vn -0.0000 0.2621 0.9650
vn -0.1428 0.2979 0.9439
vn -0.5146 0.5360 0.6692
vn -0.9601 0.2795 0.0000
vn -0.9093 0.3326 0.2501
vn -0.5621 0.5905 -0.5791
vn 0.1633 0.2948 0.9415
vn 0.5850 0.8110 0.0000
vn 0.5525 0.5462 0.6297
vn 0.1949 0.3695 -0.9085
vn 0.5906 0.6055 -0.5334
vn -0.9195 0.3386 -0.1996
vn 0.0000 0.8993 -0.4372
vn -0.5294 0.6497 -0.5455
vn 0.9393 0.2901 -0.1832
usemtl Material.001
s off
f 121/1/1 111/2/1 4/3/1 102/4/1
f 108/5/2 65/6/2 10/7/2 103/8/2
f 103/8/2 10/7/2 11/9/2 104/10/2
f 104/10/2 11/9/2 12/11/2 105/12/2
f 105/12/2 12/11/2 13/13/2 106/14/2
f 106/14/2 13/13/2 14/15/2 107/16/2
f 54/17/3 44/18/3 49/19/3 55/20/3
f 44/18/3 43/21/3 48/22/3 49/19/3
f 43/21/3 42/23/3 47/24/3 48/22/3
f 42/23/3 41/25/3 46/26/3 47/24/3
f 41/25/3 40/27/3 45/28/3 46/26/3
f 53/29/3 39/30/3 44/18/3 54/17/3
f 39/30/3 38/31/3 43/21/3 44/18/3
f 38/31/3 37/32/3 42/23/3 43/21/3
f 37/32/3 36/33/3 41/25/3 42/23/3
f 36/33/3 35/34/3 40/27/3 41/25/3
f 52/35/3 34/36/3 39/30/3 53/29/3
f 34/36/3 33/37/3 38/31/3 39/30/3
f 33/37/3 32/38/3 37/32/3 38/31/3
f 32/38/3 31/39/3 36/33/3 37/32/3
f 31/39/3 30/40/3 35/34/3 36/33/3
f 51/41/3 29/42/3 34/36/3 52/35/3
f 29/42/3 28/43/3 33/37/3 34/36/3
f 28/43/3 27/44/3 32/38/3 33/37/3
f 27/44/3 26/45/3 31/39/3 32/38/3
f 26/45/3 25/46/3 30/40/3 31/39/3
f 71/47/3 66/48/3 29/42/3 51/41/3
f 66/48/3 67/49/3 28/43/3 29/42/3
f 67/49/3 68/50/3 27/44/3 28/43/3
f 68/50/3 69/51/3 26/45/3 27/44/3
f 69/51/3 70/52/3 25/46/3 26/45/3
f 117/53/4 112/54/4 24/55/4 50/56/4
f 112/54/4 113/57/4 23/58/4 24/55/4
f 113/57/4 114/59/4 22/60/4 23/58/4
f 114/59/4 115/61/4 21/62/4 22/60/4
f 115/61/4 116/63/4 20/64/4 21/62/4
f 120/65/5 117/53/5 50/56/5 91/66/5
f 98/67/6 71/47/6 51/41/6 92/68/6
f 92/68/6 51/41/6 52/35/6 93/69/6
f 93/69/6 52/35/6 53/29/6 94/70/6
f 94/70/6 53/29/6 54/17/6 95/71/6
f 95/71/6 54/17/6 55/20/6 96/72/6
f 40/27/3 62/73/3 63/74/3 45/28/3
f 35/34/3 61/75/3 62/73/3 40/27/3
f 30/40/3 60/76/3 61/75/3 35/34/3
f 25/46/3 59/77/3 60/76/3 30/40/3
f 70/52/3 72/78/3 59/77/3 25/46/3
f 116/63/4 118/79/4 58/80/4 20/64/4
f 88/81/7 90/82/7 72/78/7 70/52/7
f 100/83/8 89/84/8 71/47/8 98/67/8
f 87/85/7 88/81/7 70/52/7 69/51/7
f 86/86/7 87/85/7 69/51/7 68/50/7
f 85/87/7 86/86/7 68/50/7 67/49/7
f 84/88/7 85/87/7 67/49/7 66/48/7
f 89/84/7 84/88/7 66/48/7 71/47/7
f 110/89/9 83/90/9 65/6/9 108/5/9
f 45/28/3 63/74/3 81/91/3 79/92/3
f 96/72/6 55/20/6 80/93/6 99/94/6
f 46/26/3 45/28/3 79/92/3 78/95/3
f 47/24/3 46/26/3 78/95/3 77/96/3
f 48/22/3 47/24/3 77/96/3 76/97/3
f 49/19/3 48/22/3 76/97/3 75/98/3
f 55/20/3 49/19/3 75/98/3 80/93/3
f 107/16/2 14/15/2 73/99/2 109/100/2
f 101/101/10 2/102/10 83/90/10 110/89/10
f 56/103/11 15/104/11 84/88/11 89/84/11
f 15/104/11 16/105/11 85/87/11 84/88/11
f 16/105/11 17/106/11 86/86/11 85/87/11
f 17/106/11 18/107/11 87/85/11 86/86/11
f 18/107/11 19/108/11 88/81/11 87/85/11
f 97/109/12 56/103/12 89/84/12 100/83/12
f 19/108/11 57/110/11 90/82/11 88/81/11
f 1/111/13 97/109/13 100/83/13 82/112/13
f 5/113/14 96/72/14 99/94/14 74/114/14
f 82/112/15 100/83/15 98/67/15 64/115/15
f 6/116/14 95/71/14 96/72/14 5/113/14
f 7/117/14 94/70/14 95/71/14 6/116/14
f 8/118/14 93/69/14 94/70/14 7/117/14
f 9/119/14 92/68/14 93/69/14 8/118/14
f 64/115/14 98/67/14 92/68/14 9/119/14
f 119/120/16 120/65/16 91/66/16 3/121/16
f 57/110/17 101/101/17 110/89/17 90/82/17
f 63/74/18 107/16/18 109/100/18 81/91/18
f 90/82/19 110/89/19 108/5/19 72/78/19
f 62/73/18 106/14/18 107/16/18 63/74/18
f 61/75/18 105/12/18 106/14/18 62/73/18
f 60/76/18 104/10/18 105/12/18 61/75/18
f 59/77/18 103/8/18 104/10/18 60/76/18
f 72/78/18 108/5/18 103/8/18 59/77/18
f 118/79/20 121/1/20 102/4/20 58/80/20
f 81/91/21 109/100/21 121/1/21 118/79/21
f 74/114/22 99/94/22 120/65/22 119/120/22
f 79/92/23 81/91/23 118/79/23 116/63/23
f 99/94/24 80/93/24 117/53/24 120/65/24
f 78/95/23 79/92/23 116/63/23 115/61/23
f 77/96/23 78/95/23 115/61/23 114/59/23
f 76/97/23 77/96/23 114/59/23 113/57/23
f 75/98/23 76/97/23 113/57/23 112/54/23
f 80/93/23 75/98/23 112/54/23 117/53/23
f 109/100/25 73/99/25 111/2/25 121/1/25
