# Blender v2.81 (sub 16) OBJ File: 'Bootsie.blend'
# www.blender.org
mtllib Readout.mtl
o Plane
v -2.899411 0.362687 0.677188
v 2.897349 0.362687 0.677188
v -2.899411 0.362687 -0.677313
v 2.897349 0.362687 -0.677313
v -3.510536 0.419343 0.873071
v 3.436109 0.419763 0.850561
v -3.420056 0.419763 -0.855046
v 3.436109 0.419763 -0.855046
v -3.172253 0.486328 -0.741050
v -3.214908 0.437418 -0.755053
v -3.373689 0.404484 -0.831610
v 3.389724 0.404484 -0.831610
v 3.230356 0.437418 -0.755053
v 3.170437 0.486328 -0.741050
v 3.170437 0.486328 0.741016
v 3.230356 0.437418 0.750981
v 3.389724 0.404484 0.827197
v -3.463051 0.404441 0.849115
v -3.300200 0.438162 0.770912
v -3.172253 0.486328 0.741016
v -2.292773 0.366037 0.696977
v -0.001332 0.366037 0.696977
v 2.291171 0.366037 0.696977
v -2.985362 0.417334 1.062626
v -0.001200 0.417334 1.062626
v 2.983883 0.417334 1.062626
v 2.413682 0.487543 0.807427
v -0.001209 0.487543 0.807427
v -2.415208 0.487543 0.807427
v 2.570343 0.437062 0.859818
v -0.001209 0.437062 0.859818
v -2.571870 0.437062 0.859818
v 2.817178 0.404202 0.989128
v -0.001202 0.404202 0.989128
v -2.818663 0.404202 0.989128
v 2.291171 0.366037 -0.697102
v -0.001332 0.366037 -0.697102
v -2.292773 0.366037 -0.697102
v 2.983883 0.417334 -1.062665
v -0.001200 0.417334 -1.062665
v -2.985362 0.417334 -1.062665
v -2.415209 0.487543 -0.807462
v -0.001209 0.487543 -0.807462
v 2.413681 0.487543 -0.807462
v -2.571870 0.437062 -0.859853
v -0.001209 0.437062 -0.859853
v 2.570342 0.437062 -0.859853
v -2.818663 0.404202 -0.989164
v -0.001202 0.404202 -0.989164
v 2.817178 0.404202 -0.989164
v -3.055820 0.379454 -0.388218
v -3.055820 0.379454 -0.000052
v -3.055820 0.379454 0.388115
v -3.605658 0.410755 -0.491016
v -3.605658 0.410755 -0.002232
v -3.605658 0.410755 0.486552
v -3.343353 0.489906 0.424717
v -3.343353 0.489906 -0.000006
v -3.343353 0.489906 -0.424729
v -3.389447 0.434365 0.429566
v -3.389447 0.434365 -0.002026
v -3.389447 0.434365 -0.433617
v -3.556809 0.397289 0.473177
v -3.556809 0.397289 -0.002195
v -3.556809 0.397289 -0.477568
v 3.048896 0.379454 0.388115
v 3.047177 0.381477 -0.002601
v 3.047177 0.381477 -0.390768
v 3.619071 0.410755 0.486552
v 3.619071 0.410755 -0.002232
v 3.619071 0.410755 -0.491016
v 3.340299 0.489906 -0.424729
v 3.340299 0.489906 -0.000006
v 3.340299 0.489906 0.424717
v 3.402292 0.434365 -0.433617
v 3.402292 0.434365 -0.002025
v 3.402293 0.434365 0.429566
v 3.570183 0.397289 -0.477568
v 3.570183 0.397289 -0.002195
v 3.570183 0.397289 0.473177
v -2.840094 0.379602 -0.000237
v -2.184627 0.380034 -0.000782
v -0.004321 0.380466 -0.001326
v 2.173033 0.380897 -0.001871
v 2.831530 0.381329 -0.002416
vt 0.032957 0.780098
vt 0.033023 0.979855
vt 0.002293 0.994508
vt 0.002293 0.787024
vt 0.980051 0.381088
vt 0.979984 0.181331
vt 0.994501 0.165582
vt 0.994501 0.373065
vt 0.257815 0.180953
vt 0.032757 0.180827
vt 0.002293 0.164573
vt 0.250345 0.164826
vt 0.739528 0.980232
vt 0.980251 0.980358
vt 0.994502 0.995514
vt 0.746449 0.995263
vt 0.713529 0.926716
vt 0.927043 0.926470
vt 0.951749 0.950044
vt 0.725684 0.950170
vt 0.966000 0.965201
vt 0.732606 0.965201
vt 0.285459 0.237758
vt 0.071944 0.238004
vt 0.062355 0.213333
vt 0.272755 0.213207
vt 0.047556 0.197080
vt 0.265285 0.197080
vt 0.926263 0.409383
vt 0.926003 0.237020
vt 0.950950 0.212830
vt 0.951150 0.397133
vt 0.965467 0.197080
vt 0.965600 0.389111
vt 0.072724 0.755092
vt 0.072984 0.927455
vt 0.063154 0.950549
vt 0.062955 0.766245
vt 0.048089 0.965202
vt 0.047956 0.773171
vt 0.965867 0.773171
vt 0.980184 0.780601
vt 0.965733 0.581141
vt 0.980117 0.580844
vt 0.951549 0.765741
vt 0.951349 0.581437
vt 0.926783 0.754108
vt 0.926523 0.581745
vt 0.994502 0.788031
vt 0.994501 0.580548
vt 0.047689 0.389110
vt 0.032824 0.380584
vt 0.047822 0.581141
vt 0.032890 0.580341
vt 0.062555 0.397637
vt 0.062755 0.581941
vt 0.072204 0.410367
vt 0.072464 0.582729
vt 0.002293 0.372057
vt 0.002293 0.579540
vt 0.265818 0.965202
vt 0.258081 0.979980
vt 0.499212 0.965201
vt 0.498804 0.980106
vt 0.273554 0.950423
vt 0.499619 0.950297
vt 0.286499 0.927208
vt 0.500014 0.926962
vt 0.250345 0.994759
vt 0.498397 0.995011
vt 0.732073 0.197080
vt 0.739261 0.181205
vt 0.498679 0.197080
vt 0.498538 0.181079
vt 0.724885 0.212956
vt 0.498820 0.213081
vt 0.712488 0.237266
vt 0.498974 0.237512
vt 0.746449 0.165330
vt 0.498397 0.165078
vt 0.502193 0.743421
vt 0.500000 0.381579
vt 0.504386 0.464912
vt 0.500000 0.666667
vt 0.502193 0.574561
vn -0.0604 -0.9859 -0.1563
vn 0.0600 -0.9857 0.1572
vn 0.2356 -0.9616 -0.1409
vn -0.2520 -0.9642 0.0823
vn -0.3556 -0.9206 0.1615
vn 0.4749 -0.8598 -0.1877
vn 0.1970 -0.9798 -0.0353
vn 0.3522 -0.9234 -0.1525
vn -0.5833 -0.7494 0.3132
vn -0.1805 -0.9804 0.0793
vn 0.0470 -0.6281 0.7767
vn -0.0920 -0.6654 -0.7408
vn -0.0474 -0.9747 -0.2183
vn -0.0470 -0.6277 -0.7771
vn 0.0903 -0.6720 0.7350
vn 0.0473 -0.9747 0.2183
vn 0.0384 -0.9710 -0.2358
vn 0.0000 -0.9692 -0.2463
vn 0.0690 -0.7489 -0.6591
vn 0.0000 -0.7201 -0.6939
vn -0.0470 -0.6280 0.7768
vn -0.0000 -0.6726 0.7400
vn -0.0504 -0.9838 0.1722
vn 0.0000 -0.9844 0.1759
vn -0.0463 -0.9744 0.2200
vn 0.0000 -0.9692 0.2463
vn -0.0884 -0.6794 0.7285
vn -0.0000 -0.7201 0.6939
vn 0.0470 -0.6277 -0.7770
vn 0.0000 -0.6723 -0.7402
vn 0.0592 -0.9855 -0.1588
vn 0.0000 -0.9844 -0.1759
vn 0.1806 -0.9802 0.0807
vn 0.2163 -0.9763 0.0000
vn 0.6692 -0.6482 0.3632
vn 0.7695 -0.6386 0.0000
vn -0.3557 -0.9206 -0.1615
vn -0.3586 -0.9335 0.0000
vn -0.2351 -0.9615 -0.1424
vn -0.2658 -0.9640 0.0000
vn -0.1807 -0.9803 -0.0794
vn -0.2156 -0.9765 0.0000
vn -0.5940 -0.7385 -0.3190
vn -0.6673 -0.7448 0.0000
vn 0.3543 -0.9218 0.1571
vn 0.3509 -0.9364 -0.0031
vn 0.3469 -0.9379 0.0000
vn 0.2357 -0.9615 0.1410
vn 0.2656 -0.9641 0.0000
vn -0.0310 -0.9994 0.0176
vn -0.0310 -0.9994 -0.0176
vn 0.0294 -0.9993 -0.0211
vn 0.0363 -0.9991 0.0198
vn -0.0027 -0.9997 -0.0239
vn -0.0027 -0.9997 0.0241
vn 0.0034 -0.9998 0.0221
vn 0.0033 -0.9998 -0.0221
vn 0.0001 -0.9998 -0.0203
vn 0.0001 -0.9998 0.0204
vn 0.0001 -0.9998 0.0211
vn 0.0001 -0.9998 -0.0210
usemtl Material.004
s off
f 48/1/1 11/2/1 7/3/1 41/4/1
f 33/5/2 17/6/2 6/7/2 26/8/2
f 78/9/3 12/10/3 8/11/3 71/12/3
f 63/13/4 18/14/4 5/15/4 56/16/4
f 53/17/5 1/18/5 20/19/5 57/20/5
f 57/20/6 20/19/6 19/21/6 60/22/6
f 60/22/7 19/21/7 18/14/7 63/13/7
f 68/23/8 4/24/8 14/25/8 72/26/8
f 72/26/9 14/25/9 13/27/9 75/28/9
f 75/28/10 13/27/10 12/10/10 78/9/10
f 23/29/11 2/30/11 15/31/11 27/32/11
f 27/32/12 15/31/12 16/33/12 30/34/12
f 30/34/13 16/33/13 17/6/13 33/5/13
f 38/35/14 3/36/14 9/37/14 42/38/14
f 42/38/15 9/37/15 10/39/15 45/40/15
f 45/40/16 10/39/16 11/2/16 48/1/16
f 19/21/17 32/41/17 35/42/17 18/14/17
f 32/41/18 31/43/18 34/44/18 35/42/18
f 31/43/18 30/34/18 33/5/18 34/44/18
f 20/19/19 29/45/19 32/41/19 19/21/19
f 29/45/20 28/46/20 31/43/20 32/41/20
f 28/46/20 27/32/20 30/34/20 31/43/20
f 1/18/21 21/47/21 29/45/21 20/19/21
f 21/47/22 22/48/22 28/46/22 29/45/22
f 22/48/22 23/29/22 27/32/22 28/46/22
f 18/14/23 35/42/23 24/49/23 5/15/23
f 35/42/24 34/44/24 25/50/24 24/49/24
f 34/44/24 33/5/24 26/8/24 25/50/24
f 13/27/25 47/51/25 50/52/25 12/10/25
f 47/51/26 46/53/26 49/54/26 50/52/26
f 46/53/26 45/40/26 48/1/26 49/54/26
f 14/25/27 44/55/27 47/51/27 13/27/27
f 44/55/28 43/56/28 46/53/28 47/51/28
f 43/56/28 42/38/28 45/40/28 46/53/28
f 4/24/29 36/57/29 44/55/29 14/25/29
f 36/57/30 37/58/30 43/56/30 44/55/30
f 37/58/30 38/35/30 42/38/30 43/56/30
f 12/10/31 50/52/31 39/59/31 8/11/31
f 50/52/32 49/54/32 40/60/32 39/59/32
f 49/54/32 48/1/32 41/4/32 40/60/32
f 10/39/33 62/61/33 65/62/33 11/2/33
f 62/61/34 61/63/34 64/64/34 65/62/34
f 61/63/34 60/22/34 63/13/34 64/64/34
f 9/37/35 59/65/35 62/61/35 10/39/35
f 59/65/36 58/66/36 61/63/36 62/61/36
f 58/66/36 57/20/36 60/22/36 61/63/36
f 3/36/37 51/67/37 59/65/37 9/37/37
f 51/67/38 52/68/38 58/66/38 59/65/38
f 52/68/38 53/17/38 57/20/38 58/66/38
f 11/2/39 65/62/39 54/69/39 7/3/39
f 65/62/40 64/64/40 55/70/40 54/69/40
f 64/64/40 63/13/40 56/16/40 55/70/40
f 16/33/41 77/71/41 80/72/41 17/6/41
f 77/71/42 76/73/42 79/74/42 80/72/42
f 76/73/42 75/28/42 78/9/42 79/74/42
f 15/31/43 74/75/43 77/71/43 16/33/43
f 74/75/44 73/76/44 76/73/44 77/71/44
f 73/76/44 72/26/44 75/28/44 76/73/44
f 2/30/45 66/77/45 74/75/45 15/31/45
f 66/77/46 67/78/46 73/76/46 74/75/46
f 67/78/47 68/23/47 72/26/47 73/76/47
f 17/6/48 80/72/48 69/79/48 6/7/48
f 80/72/49 79/74/49 70/80/49 69/79/49
f 79/74/49 78/9/49 71/12/49 70/80/49
f 3/36/50 81/81/50 52/68/50 51/67/50
f 1/18/51 53/17/51 52/68/51 81/81/51
f 66/77/52 2/30/52 85/82/52 67/78/52
f 68/23/53 67/78/53 85/82/53 4/24/53
f 2/30/54 23/29/54 84/83/54 85/82/54
f 4/24/55 85/82/55 84/83/55 36/57/55
f 38/35/56 82/84/56 81/81/56 3/36/56
f 21/47/57 1/18/57 81/81/57 82/84/57
f 22/48/58 21/47/58 82/84/58 83/85/58
f 37/58/59 83/85/59 82/84/59 38/35/59
f 36/57/60 84/83/60 83/85/60 37/58/60
f 23/29/61 22/48/61 83/85/61 84/83/61
